<?xml version="1.0" standalone="no"?>
<!DOCTYPE svg PUBLIC "-//W3C//DTD SVG 20010904//EN"
 "http://www.w3.org/TR/2001/REC-SVG-20010904/DTD/svg10.dtd">
<svg version="1.0" xmlns="http://www.w3.org/2000/svg"
 width="30px" height="30px" viewBox="0 0 20000.000000 20000.000000"
 preserveAspectRatio="xMidYMid meet">
<metadata>
Created by potrace 1.16, written by Peter Selinger 2001-2019
</metadata>
<g transform="translate(0.000000,20000.000000) scale(0.100000,-0.100000)"
fill="#000000" stroke="none">
<path d="M89065 182019 c-336 -8 -985 -29 -1490 -49 -559 -22 -763 -31 -1095
-50 -190 -10 -439 -24 -555 -30 -115 -6 -298 -18 -405 -26 -107 -8 -303 -21
-436 -29 -132 -8 -323 -22 -425 -30 -101 -8 -245 -20 -319 -25 -306 -24 -874
-73 -1160 -100 -168 -16 -339 -32 -380 -35 -147 -12 -1110 -115 -1415 -151
-115 -14 -250 -30 -300 -35 -163 -16 -834 -102 -1250 -159 -115 -16 -237 -32
-270 -35 -33 -3 -145 -19 -250 -35 -104 -15 -289 -42 -410 -60 -360 -52 -607
-89 -830 -125 -115 -18 -300 -48 -410 -65 -203 -32 -372 -60 -750 -125 -115
-20 -289 -50 -385 -66 -96 -17 -245 -43 -330 -59 -85 -16 -243 -45 -350 -65
-299 -54 -501 -92 -665 -125 -82 -16 -231 -46 -330 -65 -507 -100 -524 -103
-900 -184 -77 -16 -156 -32 -175 -36 -19 -3 -93 -19 -165 -35 -71 -15 -197
-43 -280 -60 -166 -36 -395 -87 -585 -130 -69 -16 -188 -42 -265 -60 -161 -36
-385 -88 -565 -131 -175 -42 -340 -82 -515 -124 -82 -19 -203 -49 -268 -65
-64 -16 -172 -43 -240 -60 -67 -17 -171 -44 -232 -60 -60 -15 -126 -31 -145
-35 -19 -4 -84 -20 -145 -36 -60 -16 -162 -43 -225 -60 -63 -16 -164 -43 -225
-59 -60 -16 -171 -45 -245 -65 -198 -51 -497 -133 -710 -192 -186 -52 -310
-87 -460 -128 -74 -21 -180 -50 -235 -66 -55 -17 -145 -43 -200 -59 -55 -16
-145 -42 -200 -58 -55 -16 -158 -46 -230 -67 -71 -21 -170 -50 -220 -65 -49
-15 -139 -42 -200 -60 -60 -18 -157 -47 -215 -65 -58 -18 -161 -49 -230 -70
-160 -48 -176 -53 -785 -246 -467 -147 -1462 -476 -1815 -599 -80 -28 -203
-71 -275 -95 -71 -24 -188 -65 -260 -90 -71 -26 -163 -58 -202 -72 l-73 -25 0
-77318 0 -77318 73 -25 c39 -14 131 -46 202 -72 72 -25 189 -66 260 -90 72
-24 195 -67 275 -95 565 -197 2070 -686 2605 -847 66 -19 167 -50 225 -68 58
-18 161 -49 230 -70 69 -20 159 -47 200 -60 41 -12 134 -39 205 -60 72 -21
173 -50 225 -66 52 -15 142 -41 200 -58 58 -17 150 -43 205 -60 55 -16 161
-45 235 -66 157 -43 285 -78 460 -128 69 -19 179 -49 245 -67 66 -18 156 -43
200 -56 44 -12 107 -29 140 -37 33 -8 132 -34 220 -57 88 -24 207 -55 265 -70
58 -16 177 -47 265 -70 88 -23 185 -48 215 -55 30 -7 102 -24 160 -39 58 -15
159 -41 225 -58 66 -16 161 -40 210 -53 50 -13 169 -42 265 -64 96 -23 229
-55 295 -71 299 -72 380 -91 520 -124 83 -19 213 -49 290 -66 77 -18 196 -44
265 -60 190 -43 419 -94 585 -130 83 -17 209 -45 280 -60 72 -16 146 -32 165
-35 19 -4 98 -20 175 -36 288 -62 414 -88 565 -118 165 -32 419 -83 665 -131
169 -33 378 -73 665 -125 107 -20 265 -49 350 -65 85 -16 234 -42 330 -59 96
-16 270 -46 385 -66 378 -65 547 -93 750 -125 110 -17 295 -47 410 -65 223
-36 470 -73 830 -125 121 -18 306 -45 410 -60 105 -16 217 -32 250 -35 33 -3
155 -19 270 -35 436 -60 1090 -143 1265 -161 58 -5 166 -19 240 -29 74 -10
169 -21 210 -25 41 -3 194 -19 340 -35 368 -41 820 -88 910 -95 41 -3 212 -19
380 -35 468 -45 1346 -117 1760 -145 124 -8 320 -22 435 -30 218 -15 565 -36
910 -54 110 -6 322 -18 470 -26 149 -8 394 -19 545 -25 151 -5 527 -18 835
-29 940 -34 1389 -41 2720 -41 1331 0 1780 7 2720 41 308 11 682 24 830 29
286 10 499 21 915 45 140 8 350 19 465 25 116 6 329 19 475 30 146 10 344 24
440 30 302 18 1396 107 1835 150 165 16 334 32 375 35 83 6 500 50 910 95 146
16 299 32 340 35 41 4 136 15 210 25 74 10 182 24 240 29 183 19 836 101 1270
161 113 16 232 31 265 35 33 3 150 19 260 36 110 16 295 43 410 60 357 52 601
89 820 124 116 18 300 48 410 65 210 33 400 64 750 125 116 20 289 50 385 66
172 29 327 57 685 124 99 19 257 48 350 65 94 17 235 44 315 60 80 16 226 45
325 65 414 82 497 98 635 127 80 16 204 43 275 58 72 16 146 32 165 35 69 12
480 101 740 160 80 18 210 47 290 65 298 66 641 145 825 190 66 16 179 43 250
60 174 41 1231 303 1370 339 61 16 173 46 250 66 77 21 187 50 245 65 58 15
168 44 245 64 77 21 173 46 214 57 40 10 112 30 160 44 47 13 145 41 216 60
72 20 180 50 240 67 61 17 157 44 215 60 58 16 159 45 225 64 66 19 166 48
223 64 56 17 148 43 205 60 56 16 158 46 227 66 69 20 159 46 200 59 41 12
131 40 200 60 69 21 166 50 215 65 50 15 146 45 215 65 169 51 295 90 420 130
58 19 285 91 505 160 545 173 1479 485 2100 702 55 19 125 43 155 53 61 20
264 93 615 220 44 15 132 47 195 70 151 54 223 81 350 128 58 22 175 66 260
97 85 31 182 68 215 81 33 13 128 49 210 79 207 78 322 122 560 215 44 17 114
44 155 60 143 55 298 115 488 191 42 17 109 43 147 59 101 40 172 69 235 95
30 13 73 30 95 38 47 17 316 127 460 187 55 23 125 52 155 65 30 13 96 40 145
60 50 20 115 47 145 60 30 13 93 39 140 58 47 19 123 52 170 72 47 20 110 47
140 60 30 13 91 39 135 58 44 19 145 63 225 97 80 34 181 78 225 97 44 19 105
45 135 58 30 12 75 32 100 43 49 23 328 147 705 314 148 66 150 67 695 318
289 134 603 280 698 326 95 46 175 84 177 84 6 0 303 143 850 410 262 127 809
401 1184 592 240 122 338 173 596 308 61 31 182 94 270 140 88 45 174 90 190
100 17 9 73 40 125 67 52 28 124 66 160 85 36 20 101 54 145 78 219 116 460
247 815 443 30 17 73 40 95 52 22 13 123 69 225 125 102 57 203 113 225 125
22 12 83 47 135 77 84 48 172 98 330 186 25 14 83 47 129 74 46 26 86 48 88
48 2 0 20 11 41 23 20 13 69 42 107 64 39 23 116 68 173 102 56 34 105 61 108
61 2 0 21 11 42 24 20 13 91 55 157 93 430 251 1109 658 1440 863 33 20 103
63 155 95 52 32 140 86 195 120 181 112 1058 667 1175 743 63 41 152 99 198
129 45 29 119 77 165 106 45 30 129 84 187 122 149 97 1016 675 1108 739 43
29 122 84 177 121 55 38 134 92 175 120 41 28 131 90 200 137 69 47 260 180
425 296 165 116 320 225 345 242 55 39 553 395 672 482 48 35 121 88 164 118
42 30 141 102 219 160 79 58 216 159 306 225 176 129 646 482 954 715 531 402
1525 1184 2009 1580 51 41 172 140 270 220 518 421 1441 1201 1981 1674 384
337 577 506 670 591 55 49 163 146 240 215 76 69 169 152 205 185 36 33 162
148 280 255 2176 1980 4405 4255 6430 6564 509 581 1236 1438 1699 2004 73 89
135 162 138 162 4 0 97 -29 207 -64 111 -34 257 -80 326 -101 69 -20 159 -48
200 -60 41 -13 138 -42 215 -65 77 -23 174 -52 215 -65 41 -13 131 -40 200
-60 69 -20 159 -47 200 -60 41 -13 134 -40 205 -60 72 -21 173 -50 225 -66 90
-26 219 -64 445 -128 94 -27 139 -40 440 -124 66 -19 172 -49 235 -66 63 -17
162 -45 220 -61 58 -16 166 -46 240 -65 74 -20 185 -50 245 -66 342 -92 659
-174 955 -249 63 -16 169 -42 235 -59 170 -42 554 -135 810 -195 226 -53 395
-92 550 -126 77 -17 199 -44 270 -60 72 -16 166 -36 210 -45 44 -9 177 -36
295 -61 118 -25 240 -49 270 -53 30 -5 111 -21 180 -35 245 -51 1086 -196
1275 -220 22 -3 128 -19 235 -35 1159 -175 2938 -361 3950 -411 113 -6 309
-17 435 -25 238 -14 544 -28 1085 -46 492 -17 2078 -23 2501 -10 744 24 921
31 1209 51 162 11 367 25 455 30 480 29 1421 130 2100 226 969 136 2095 355
2890 561 55 14 125 31 155 38 30 6 100 24 155 39 55 15 150 41 210 57 286 77
567 159 995 291 52 16 122 38 155 48 143 44 584 194 795 270 63 23 127 45 142
50 15 5 65 23 110 40 46 18 117 45 158 60 215 81 538 209 695 275 61 26 135
57 165 70 30 13 92 39 138 59 45 20 117 51 160 70 426 184 1249 600 1625 822
60 35 111 64 113 64 2 0 21 11 42 24 20 12 75 46 122 73 274 162 687 428 938
604 235 165 402 287 547 399 54 41 109 84 124 95 68 51 350 281 471 384 1097
933 2030 2014 2765 3201 60 96 118 191 130 210 34 55 168 286 221 380 81 147
95 173 142 260 183 345 413 831 557 1175 133 318 203 500 288 740 19 55 49
138 65 185 61 171 186 578 251 815 62 224 80 294 120 455 159 650 316 1545
361 2058 6 65 17 173 25 242 16 147 28 298 52 665 15 222 18 415 18 1090 0
560 -4 876 -13 995 -7 96 -17 254 -22 350 -19 343 -101 1062 -165 1457 -105
644 -215 1158 -377 1753 -53 196 -137 473 -229 750 -80 240 -113 334 -235 660
-22 61 -161 402 -199 490 -20 47 -47 110 -60 140 -24 57 -60 139 -100 225 -12
28 -33 73 -45 100 -73 162 -386 783 -487 965 -178 322 -242 432 -458 785 -217
356 -566 876 -842 1255 -142 196 -432 580 -506 670 -6 8 -45 58 -86 110 -258
330 -673 820 -1062 1256 -528 590 -981 1067 -1633 1719 -628 628 -1021 1002
-1646 1566 -94 84 -192 171 -529 468 -631 555 -2033 1752 -3277 2797 -110 93
-254 214 -320 269 -407 342 -1855 1550 -2684 2239 -380 315 -521 433 -789 657
-68 57 -168 140 -221 184 -54 44 -234 195 -401 335 -612 512 -737 617 -899
753 -91 76 -230 193 -310 260 -80 67 -206 173 -281 237 -74 63 -232 196 -350
296 -118 99 -304 257 -414 350 -110 93 -321 272 -470 398 -148 126 -276 234
-284 241 -11 11 -11 26 -2 86 13 80 53 329 106 664 77 474 189 1235 254 1715
79 586 145 1094 156 1205 3 33 19 166 35 295 16 129 43 363 60 520 17 157 44
404 60 550 17 146 35 324 41 395 5 72 18 209 29 305 10 96 22 213 25 260 4 47
17 198 31 335 13 138 28 319 34 402 5 84 21 278 34 430 14 153 28 323 31 378
3 55 19 289 35 520 36 514 84 1363 105 1860 9 204 20 456 25 560 31 663 60
2215 60 3215 0 1000 -29 2552 -60 3215 -5 105 -16 357 -25 560 -21 497 -69
1346 -105 1860 -16 231 -32 465 -35 520 -3 55 -17 225 -31 378 -13 152 -29
346 -34 430 -6 83 -21 265 -34 402 -14 138 -27 288 -31 335 -3 47 -15 164 -25
260 -11 96 -24 234 -30 305 -5 72 -23 249 -40 395 -16 146 -43 393 -60 550
-17 157 -44 391 -60 520 -16 129 -32 262 -35 295 -11 111 -77 619 -156 1205
-65 480 -177 1241 -254 1715 -18 116 -47 298 -64 405 -18 107 -45 272 -61 365
-113 659 -152 877 -190 1085 -16 85 -45 243 -65 350 -20 107 -50 268 -68 357
-17 89 -29 164 -27 167 15 15 849 108 1130 126 80 5 233 17 340 25 550 42
1090 59 1900 59 812 0 1345 -16 1950 -59 113 -8 277 -19 365 -25 193 -12 636
-52 950 -86 127 -14 275 -30 330 -35 117 -11 476 -56 795 -100 1142 -156 2211
-349 3145 -569 66 -15 181 -42 255 -60 128 -29 197 -46 490 -121 69 -17 150
-37 180 -44 30 -7 118 -29 195 -49 77 -21 192 -51 255 -67 63 -17 144 -38 180
-49 36 -10 119 -33 185 -50 66 -18 172 -47 235 -65 63 -18 167 -47 230 -65
208 -59 442 -126 640 -185 266 -79 452 -136 565 -171 66 -20 141 -43 167 -50
41 -11 139 -41 518 -161 63 -19 153 -48 200 -64 47 -15 180 -58 295 -95 301
-96 1169 -385 1515 -504 352 -122 412 -141 416 -137 2 2 -5 52 -16 113 -127
719 -284 1877 -335 2464 -8 96 -22 240 -30 320 -28 278 -71 957 -81 1292 l-7
207 -71 16 c-39 9 -114 25 -167 35 -52 10 -149 30 -215 43 -175 37 -398 83
-574 117 -85 17 -222 44 -305 60 -150 30 -385 75 -675 130 -85 16 -238 45
-340 64 -102 19 -264 49 -360 66 -96 17 -247 44 -335 60 -228 42 -795 139
-1105 190 -374 61 -895 143 -1210 190 -474 70 -607 89 -650 94 -25 3 -142 19
-260 35 -342 47 -1092 142 -1230 156 -25 3 -164 18 -310 34 -479 54 -1355 138
-1620 156 -47 3 -233 16 -415 30 -181 14 -427 29 -545 35 -118 5 -352 17 -520
25 -965 47 -2110 47 -3170 0 -184 -9 -434 -20 -555 -25 -477 -22 -1378 -96
-1960 -161 -381 -43 -947 -114 -989 -125 -24 -6 -18 -24 -106 346 -15 63 -42
176 -59 250 -18 74 -87 351 -153 615 -66 264 -124 500 -130 525 -5 25 -22 92
-38 150 -16 58 -43 159 -60 225 -17 66 -45 170 -61 230 -16 61 -45 171 -65
245 -56 212 -92 345 -130 480 -64 230 -93 334 -125 450 -41 152 -83 298 -125
445 -20 66 -48 165 -64 220 -16 55 -43 145 -59 200 -16 55 -46 159 -66 230
-21 72 -50 171 -65 220 -16 50 -43 137 -60 195 -18 58 -45 146 -60 195 -15 50
-45 146 -65 215 -66 218 -335 1072 -385 1220 -16 47 -67 202 -114 345 -47 143
-91 274 -96 290 -6 17 -42 125 -80 240 -38 116 -90 269 -115 340 -26 72 -68
195 -95 275 -69 202 -112 326 -160 460 -23 63 -54 151 -70 195 -15 44 -45 125
-65 180 -20 55 -45 125 -55 155 -10 30 -39 111 -65 180 -26 69 -53 145 -61
170 -8 25 -25 72 -38 105 -13 33 -35 92 -49 130 -25 70 -82 221 -136 365 -16
41 -41 109 -56 150 -33 90 -87 232 -166 435 -52 134 -95 245 -176 455 -53 139
-97 249 -135 345 -46 114 -85 212 -126 318 -16 39 -39 97 -51 127 -13 30 -36
87 -51 125 -16 39 -45 109 -64 157 -20 47 -36 89 -36 92 0 3 -11 29 -24 58
-13 29 -33 76 -44 103 -20 52 -108 264 -182 440 -63 151 -85 202 -123 295 -19
47 -52 123 -72 170 -20 47 -47 110 -60 140 -27 65 -85 199 -110 255 -42 96
-104 240 -140 325 -13 30 -53 123 -90 205 -37 83 -82 184 -100 225 -26 61
-107 242 -220 495 -66 148 -430 937 -476 1033 -32 67 -59 124 -59 126 0 2 -39
85 -86 183 -47 98 -112 234 -144 303 -32 69 -81 172 -110 230 -28 58 -92 190
-143 295 -102 209 -777 1558 -851 1699 -26 49 -130 248 -232 443 -102 195
-200 382 -218 416 -164 306 -418 776 -526 972 -73 132 -180 326 -237 430 -94
170 -304 542 -403 715 -20 36 -77 135 -125 220 -48 85 -100 175 -115 200 -32
54 -130 221 -158 270 -11 19 -44 76 -73 125 -29 50 -76 131 -104 180 -28 50
-134 227 -235 395 -101 168 -198 330 -215 360 -42 72 -236 391 -308 505 -31
50 -67 108 -80 130 -36 60 -333 540 -384 620 -60 95 -160 253 -204 323 -89
142 -184 291 -214 337 -18 28 -66 102 -107 165 -41 63 -108 167 -149 230 -42
63 -104 160 -140 215 -330 512 -1110 1662 -1573 2320 -20 28 -70 100 -113 160
-67 96 -150 213 -348 489 -28 38 -79 110 -116 160 -36 50 -107 150 -159 221
-51 72 -123 171 -160 220 -72 97 -213 288 -355 480 -104 142 -316 424 -465
620 -59 77 -156 205 -216 285 -133 175 -708 915 -820 1055 -44 55 -170 213
-279 350 -455 572 -1656 2025 -1715 2075 -3 3 -85 97 -180 210 -848 996 -2117
2391 -3160 3470 -1399 1448 -2810 2811 -4245 4100 -77 69 -185 166 -240 215
-92 83 -185 165 -669 590 -485 425 -1481 1268 -1896 1605 -51 41 -172 140
-270 220 -882 720 -2058 1634 -2935 2281 -361 266 -555 408 -643 472 -40 28
-112 80 -160 115 -167 121 -627 451 -672 482 -25 17 -180 126 -345 242 -165
116 -356 249 -425 296 -69 47 -168 115 -220 151 -52 35 -131 89 -175 119 -44
31 -114 79 -157 108 -92 64 -959 643 -1108 739 -58 38 -142 92 -187 122 -46
29 -120 77 -165 106 -46 30 -135 88 -198 129 -117 76 -994 631 -1175 743 -55
34 -143 88 -195 120 -52 32 -122 75 -155 95 -331 205 -1010 612 -1440 863 -66
38 -137 80 -157 93 -21 13 -40 24 -42 24 -3 0 -52 27 -108 61 -57 34 -134 79
-173 102 -38 22 -87 51 -107 64 -21 12 -39 23 -41 23 -2 0 -42 22 -88 48 -46
27 -104 60 -129 74 -158 88 -246 138 -330 186 -52 30 -113 65 -135 77 -22 12
-123 68 -225 125 -243 135 -287 159 -335 185 -22 12 -130 72 -240 132 -192
106 -390 213 -560 303 -44 24 -109 58 -145 78 -36 19 -108 57 -160 85 -52 27
-108 58 -125 67 -16 10 -102 55 -190 100 -88 46 -209 109 -270 140 -258 135
-356 186 -596 308 -375 191 -922 465 -1184 592 -547 267 -844 410 -850 410 -2
0 -82 38 -177 84 -140 67 -1108 516 -1263 586 -22 10 -80 36 -130 58 -377 167
-656 291 -705 314 -25 11 -70 31 -100 43 -30 13 -91 39 -135 58 -44 19 -145
63 -225 97 -80 34 -181 78 -225 97 -44 19 -105 45 -135 58 -30 13 -93 40 -140
60 -47 20 -121 52 -165 70 -72 29 -242 100 -460 190 -44 18 -114 47 -155 65
-121 51 -392 161 -435 177 -22 8 -65 25 -95 38 -64 27 -136 56 -237 96 -40 16
-106 42 -145 58 -155 62 -342 135 -488 191 -82 31 -209 81 -335 130 -112 44
-206 80 -380 145 -82 30 -177 66 -210 79 -33 13 -148 56 -255 96 -107 39 -222
82 -255 95 -33 13 -112 42 -175 65 -63 23 -144 52 -180 65 -36 13 -103 37
-150 54 -47 17 -143 51 -215 77 -268 97 -352 126 -405 144 -30 10 -100 34
-155 53 -878 308 -2309 776 -3030 993 -66 20 -160 49 -210 64 -49 15 -146 44
-215 65 -69 20 -159 48 -200 60 -41 13 -131 39 -200 59 -69 20 -170 49 -225
65 -55 16 -147 43 -205 60 -58 17 -159 46 -225 65 -142 41 -280 80 -465 131
-160 44 -312 86 -431 120 -48 14 -120 34 -160 44 -41 11 -137 36 -214 57 -77
20 -187 49 -245 64 -58 16 -157 42 -220 58 -63 17 -169 45 -235 62 -66 16
-134 35 -150 40 -17 6 -60 17 -95 24 -36 8 -283 69 -550 135 -267 66 -543 134
-615 151 -71 17 -184 44 -250 60 -184 45 -527 124 -825 190 -80 18 -210 47
-290 65 -260 59 -671 148 -740 160 -19 3 -93 19 -165 35 -71 15 -195 42 -275
58 -138 29 -221 45 -635 127 -99 20 -245 49 -325 65 -80 16 -219 42 -310 59
-91 17 -250 46 -355 66 -414 77 -517 95 -685 124 -96 16 -269 46 -385 66 -374
64 -546 93 -750 125 -110 17 -294 47 -410 65 -220 36 -467 73 -820 124 -115
17 -300 44 -410 60 -110 16 -227 32 -260 36 -33 3 -152 19 -265 35 -434 60
-1087 142 -1270 161 -58 5 -166 19 -240 29 -74 10 -169 21 -210 25 -41 3 -194
19 -340 35 -410 45 -827 89 -910 95 -41 3 -210 19 -375 35 -430 42 -1529 132
-1835 150 -96 6 -294 20 -440 30 -146 11 -359 24 -475 30 -115 6 -327 17 -470
25 -466 27 -636 35 -910 45 -148 5 -522 18 -830 29 -308 12 -758 25 -1000 31
-502 11 -2998 11 -3510 -1z m81665 -63364 c0 -8 5 -15 10 -15 6 0 10 -20 10
-45 0 -25 4 -45 9 -45 4 0 6 -11 4 -24 -3 -13 0 -27 6 -30 6 -4 11 -23 11 -42
0 -19 5 -34 10 -34 6 0 10 -20 10 -45 0 -25 4 -45 8 -45 5 0 14 -35 21 -77 19
-124 23 -143 32 -149 5 -3 9 -18 9 -34 0 -16 4 -31 9 -34 5 -3 12 -40 16 -81
4 -41 11 -75 16 -75 5 0 9 -20 9 -45 0 -25 4 -45 9 -45 4 0 12 -31 15 -70 4
-38 11 -72 17 -75 5 -4 9 -22 9 -41 0 -19 5 -34 10 -34 6 0 10 -16 10 -35 0
-19 4 -35 9 -35 4 0 12 -36 15 -80 4 -44 12 -82 17 -85 5 -4 9 -26 9 -51 0
-24 5 -44 10 -44 6 0 10 -17 10 -38 0 -21 4 -42 10 -48 5 -5 12 -42 16 -82 4
-39 11 -72 15 -72 5 0 9 -20 9 -45 0 -25 4 -45 9 -45 5 0 12 -36 16 -80 4 -44
11 -83 16 -86 5 -3 9 -21 9 -40 0 -19 5 -34 10 -34 6 0 10 -18 10 -39 0 -22 4
-42 9 -45 5 -3 12 -42 16 -86 4 -44 11 -83 16 -86 5 -3 9 -18 9 -34 0 -16 5
-32 10 -35 6 -3 10 -28 10 -56 0 -27 4 -49 9 -49 5 0 12 -38 16 -85 4 -47 11
-85 16 -85 5 0 9 -20 9 -45 0 -25 5 -45 10 -45 6 0 10 -20 10 -45 0 -25 3 -45
8 -45 4 0 6 -18 4 -41 -3 -22 1 -46 7 -52 6 -6 11 -26 11 -44 0 -18 5 -33 10
-33 6 0 10 -6 10 -14 0 -9 -18 -15 -52 -19 -81 -10 -375 -55 -543 -84 -82 -14
-177 -30 -210 -34 -293 -43 -1165 -235 -1590 -351 -366 -100 -992 -297 -1200
-378 -27 -11 -99 -38 -160 -61 -182 -69 -441 -172 -510 -203 -16 -8 -59 -26
-95 -41 -61 -25 -162 -71 -355 -160 -64 -29 -258 -125 -495 -245 -154 -78
-717 -395 -780 -440 -15 -11 -31 -20 -34 -20 -3 0 -74 -43 -157 -95 -83 -52
-153 -95 -154 -95 -1 0 -106 -70 -234 -155 -128 -85 -236 -155 -241 -155 -4 0
-10 -4 -12 -9 -1 -4 -43 -37 -93 -71 -229 -162 -584 -434 -825 -634 -171 -142
-291 -247 -499 -439 -57 -53 -108 -94 -113 -91 -5 3 -7 1 -6 -4 2 -5 -90 -101
-203 -213 -113 -112 -266 -269 -340 -349 -74 -80 -137 -144 -142 -142 -4 1 -6
-2 -5 -7 2 -5 -26 -42 -62 -82 -36 -41 -81 -92 -100 -114 -416 -471 -928
-1186 -1275 -1780 -32 -55 -70 -120 -85 -145 -213 -352 -579 -1109 -755 -1560
-20 -52 -47 -122 -60 -155 -115 -288 -293 -858 -389 -1245 -86 -351 -193 -913
-220 -1170 -4 -30 -18 -158 -32 -284 -30 -276 -54 -758 -54 -1101 0 -296 23
-842 45 -1046 8 -79 20 -191 25 -249 87 -866 334 -1906 650 -2745 74 -195 87
-228 130 -330 23 -55 52 -125 65 -155 155 -373 564 -1176 760 -1491 5 -9 18
-32 29 -50 106 -192 505 -804 786 -1204 158 -226 701 -958 730 -985 3 -3 46
-57 95 -120 249 -319 597 -743 934 -1135 208 -242 566 -647 728 -824 73 -79
130 -148 127 -153 -3 -5 0 -7 8 -6 7 2 12 -3 11 -9 -2 -7 0 -12 5 -11 6 2 74
-67 236 -242 94 -102 228 -242 541 -564 160 -164 289 -304 287 -310 -2 -6 0
-8 4 -3 11 10 75 -54 67 -67 -3 -6 -2 -8 2 -3 11 9 56 -33 49 -45 -3 -5 0 -7
8 -6 7 2 12 -4 10 -12 -2 -8 0 -12 4 -7 11 10 55 -33 47 -47 -3 -6 -2 -8 2 -3
11 10 76 -53 68 -66 -3 -6 -2 -8 3 -4 5 3 169 -152 364 -344 195 -192 356
-349 358 -349 2 0 119 -110 260 -243 141 -134 274 -259 294 -276 21 -18 35
-37 32 -42 -3 -5 0 -8 8 -7 7 2 12 -3 10 -10 -1 -8 2 -11 7 -8 5 3 60 -42 123
-102 210 -197 341 -317 563 -517 121 -109 246 -224 278 -255 31 -32 57 -55 57
-53 0 2 102 -88 227 -199 124 -112 308 -275 408 -363 100 -88 238 -209 306
-269 68 -61 123 -114 121 -119 -1 -4 1 -6 6 -3 5 3 40 -24 78 -59 38 -36 72
-66 75 -67 4 -2 91 -77 195 -168 103 -91 224 -196 268 -235 142 -122 191 -168
188 -177 -1 -5 1 -7 6 -4 11 6 498 -413 494 -426 -1 -4 2 -7 7 -6 14 4 380
-315 374 -326 -3 -5 -1 -6 4 -3 6 4 37 -16 69 -44 33 -28 86 -74 119 -102 32
-29 118 -101 190 -162 254 -214 325 -277 325 -286 0 -5 5 -9 11 -9 6 0 44 -28
84 -62 64 -54 74 -68 75 -95 0 -17 -5 -35 -11 -39 -6 -3 -9 -22 -7 -40 2 -19
0 -34 -4 -34 -4 0 -8 -22 -8 -48 0 -27 -3 -52 -6 -55 -4 -4 -43 31 -88 76 -45
46 -90 86 -100 90 -18 7 -19 2 -13 -84 3 -50 8 -94 12 -97 3 -3 44 -6 90 -6
l85 -1 0 -42 c0 -24 -4 -43 -9 -43 -5 0 -12 -43 -16 -95 -4 -52 -11 -95 -16
-95 -5 0 -9 -22 -9 -50 0 -27 -4 -50 -10 -50 -5 0 -10 -20 -10 -45 0 -25 -4
-45 -9 -45 -4 0 -11 -44 -15 -97 -4 -54 -11 -102 -16 -107 -6 -6 -10 -27 -10
-48 0 -21 -4 -38 -10 -38 -5 0 -10 -24 -10 -54 0 -30 -5 -58 -11 -62 -6 -3 -9
-22 -7 -40 2 -19 0 -34 -4 -34 -4 0 -8 -25 -8 -55 0 -30 -4 -55 -10 -55 -5 0
-10 -18 -10 -39 0 -22 -4 -42 -9 -46 -5 -3 -13 -46 -17 -95 -3 -50 -10 -90
-15 -90 -5 0 -9 -20 -9 -45 0 -25 -4 -45 -10 -45 -5 0 -10 -22 -10 -49 0 -28
-4 -52 -9 -55 -5 -3 -12 -42 -16 -86 -4 -44 -11 -80 -16 -80 -5 0 -9 -20 -9
-45 0 -25 -4 -45 -10 -45 -5 0 -10 -20 -10 -44 0 -25 -5 -48 -11 -52 -6 -3 -9
-22 -7 -40 2 -19 0 -34 -4 -34 -4 0 -8 -20 -8 -45 0 -25 -4 -45 -10 -45 -5 0
-10 -20 -10 -45 0 -25 -4 -45 -9 -45 -5 0 -12 -38 -16 -85 -4 -47 -11 -85 -16
-85 -5 0 -9 -20 -9 -45 0 -25 -4 -45 -10 -45 -5 0 -10 -18 -10 -39 0 -22 -4
-42 -9 -45 -5 -3 -12 -42 -16 -86 -4 -44 -11 -83 -16 -86 -5 -3 -9 -23 -9 -45
0 -21 -4 -39 -10 -39 -5 0 -10 -15 -10 -34 0 -19 -4 -37 -9 -40 -5 -3 -12 -42
-16 -86 -4 -44 -11 -80 -16 -80 -5 0 -9 -20 -9 -45 0 -25 -4 -45 -9 -45 -5 0
-12 -38 -16 -85 -4 -47 -11 -85 -16 -85 -5 0 -9 -16 -9 -35 0 -19 -4 -35 -10
-35 -5 0 -10 -20 -10 -44 0 -25 -4 -47 -9 -50 -5 -3 -12 -37 -16 -76 -4 -38
-11 -70 -16 -70 -5 0 -9 -20 -9 -45 0 -25 -4 -45 -10 -45 -5 0 -10 -15 -10
-34 0 -19 -4 -37 -9 -41 -6 -3 -13 -37 -17 -75 -3 -39 -11 -70 -15 -70 -5 0
-9 -20 -9 -45 0 -25 -4 -45 -9 -45 -5 0 -12 -31 -16 -70 -4 -38 -11 -70 -16
-70 -5 0 -9 -18 -9 -39 0 -22 -4 -43 -10 -46 -5 -3 -10 -24 -10 -46 0 -34 -3
-39 -24 -39 -16 0 -37 16 -66 50 -23 28 -51 50 -61 50 -11 0 -19 4 -19 9 0 16
-69 81 -85 81 -8 0 -15 5 -15 11 0 5 -3 8 -7 6 -5 -3 -14 1 -21 9 -7 8 -10 14
-7 14 3 0 -6 11 -20 26 -14 14 -29 23 -34 20 -4 -3 -25 15 -47 39 -21 25 -45
45 -52 45 -14 0 -82 67 -82 81 0 5 -10 9 -23 9 -12 0 -30 9 -40 20 -9 11 -14
20 -11 20 4 0 -9 13 -27 30 -19 16 -39 30 -44 30 -6 0 -17 9 -25 19 -7 11 -17
18 -22 15 -4 -3 -8 -1 -8 4 0 15 -36 52 -51 52 -8 0 -32 20 -54 45 -21 25 -44
44 -50 42 -5 -3 -16 2 -23 9 -7 8 -10 14 -6 14 4 0 -6 10 -22 22 -16 13 -30
26 -32 30 -2 5 -9 8 -16 8 -6 0 -18 9 -26 19 -7 11 -17 18 -22 15 -4 -3 -8 -1
-8 4 0 15 -36 52 -52 52 -7 0 -30 18 -51 40 -20 22 -41 40 -46 40 -6 0 -35 25
-65 56 -31 30 -59 53 -64 50 -5 -3 -15 5 -23 16 -21 31 -70 78 -79 75 -4 -1
-26 17 -49 41 -22 23 -46 42 -54 42 -7 0 -32 21 -55 46 -22 25 -45 43 -50 40
-5 -3 -25 15 -46 39 -20 25 -44 45 -53 45 -15 0 -63 46 -93 89 -8 11 -21 21
-28 21 -8 0 -32 18 -53 40 -22 22 -44 40 -49 40 -6 0 -30 20 -53 45 -24 25
-50 45 -58 45 -8 0 -31 20 -52 45 -22 25 -42 43 -46 41 -3 -2 -15 2 -26 10
-10 8 -15 14 -11 14 11 0 -56 60 -67 60 -13 0 -33 18 -87 79 -17 19 -33 31
-37 28 -3 -4 -24 14 -45 38 -23 26 -49 45 -61 45 -11 0 -17 3 -14 6 7 7 -30
44 -44 44 -4 0 -11 9 -14 20 -3 11 -15 20 -25 20 -11 0 -24 6 -30 13 -41 49
-71 79 -76 74 -4 -3 -26 14 -49 39 -23 24 -49 44 -57 44 -8 0 -36 25 -62 54
-30 35 -52 53 -62 49 -8 -3 -14 -1 -14 5 0 14 -67 82 -80 82 -6 0 -31 21 -55
46 -25 25 -49 43 -53 40 -5 -3 -26 15 -48 39 -21 25 -45 45 -52 45 -7 0 -20 7
-28 15 -9 8 -12 15 -8 15 4 0 -4 9 -17 20 -13 11 -29 24 -36 30 -7 5 -17 10
-23 10 -5 0 -10 5 -10 11 0 5 -4 8 -10 4 -5 -3 -17 7 -27 22 -24 38 -40 54
-51 51 -5 -2 -32 21 -59 50 -28 28 -57 52 -64 52 -8 0 -32 20 -54 45 -21 25
-44 44 -50 41 -7 -2 -18 5 -26 16 -20 30 -62 68 -74 68 -6 0 -17 9 -25 19 -7
11 -17 18 -22 15 -4 -3 -8 -1 -8 4 0 15 -37 52 -52 52 -8 0 -33 20 -55 45 -23
25 -45 44 -51 43 -5 -2 -32 21 -59 50 -28 28 -56 52 -62 52 -6 0 -11 5 -11 11
0 5 -3 8 -7 6 -5 -3 -14 1 -21 9 -7 8 -10 14 -7 14 3 0 -5 11 -19 25 -14 14
-29 24 -35 23 -5 -2 -27 16 -50 40 -22 23 -45 42 -51 42 -6 0 -31 21 -55 46
-25 25 -49 43 -53 40 -5 -3 -19 6 -30 19 -12 14 -19 25 -16 25 4 0 -6 10 -22
23 -16 12 -32 22 -36 22 -5 0 -19 12 -32 27 -12 15 -26 25 -30 21 -3 -3 -6 -2
-6 4 0 15 -36 53 -50 53 -7 0 -33 21 -57 46 -24 26 -46 44 -49 41 -3 -3 -33
23 -67 59 -34 35 -66 63 -72 61 -5 -3 -16 2 -23 9 -7 8 -10 14 -6 14 4 0 -3 9
-16 20 -13 11 -26 20 -29 20 -3 0 -15 14 -26 30 -11 17 -29 33 -39 36 -11 4
-30 17 -43 30 -13 13 -29 24 -35 24 -6 0 -9 3 -5 6 7 7 -70 84 -84 84 -6 0
-42 32 -79 70 -37 39 -74 70 -82 70 -8 0 -27 14 -41 30 -15 17 -24 30 -21 30
4 0 -6 10 -22 22 -16 13 -40 35 -52 51 -13 15 -28 25 -33 21 -5 -3 -16 2 -25
10 -8 9 -13 16 -9 16 3 0 0 6 -7 14 -7 8 -15 13 -18 11 -3 -2 -11 3 -18 11 -7
8 -10 14 -7 14 3 0 -17 23 -45 50 -28 28 -56 50 -64 50 -7 0 -27 16 -43 35
-17 19 -33 32 -36 28 -4 -3 -7 -1 -7 5 0 14 -107 123 -118 120 -5 -2 -56 46
-115 105 -58 60 -109 107 -114 104 -10 -6 -34 19 -26 27 4 3 1 6 -6 6 -11 0
-35 23 -159 155 -18 19 -39 35 -47 35 -8 0 -15 5 -15 11 0 5 -4 8 -10 4 -5 -3
-17 7 -27 22 -24 39 -40 53 -47 46 -3 -4 -6 -2 -6 4 0 15 -180 194 -189 188
-4 -2 -17 6 -29 18 -12 12 -26 27 -32 32 -5 6 -23 24 -39 42 -15 18 -31 29
-35 26 -3 -3 -6 -1 -6 5 0 16 -207 222 -223 222 -16 0 -87 76 -79 84 3 3 0 6
-5 6 -6 0 -113 102 -237 227 -125 124 -229 224 -232 220 -9 -9 -54 35 -47 46
3 6 2 7 -4 4 -11 -7 -55 38 -46 47 4 3 0 6 -7 6 -7 0 -26 14 -42 30 -15 17
-26 30 -23 30 3 0 0 6 -7 14 -7 8 -16 12 -19 10 -3 -1 -12 6 -20 18 -18 26
-31 39 -57 57 -12 8 -19 18 -17 21 2 3 -5 13 -17 21 -11 8 -26 20 -32 27 -12
14 -47 50 -68 69 -7 7 -18 18 -24 25 -6 7 -21 19 -32 27 -12 8 -19 18 -17 21
2 3 -5 13 -17 21 -11 8 -26 20 -32 27 -12 14 -47 50 -68 69 -7 7 -18 18 -24
25 -6 7 -21 19 -32 27 -12 8 -19 18 -17 21 2 3 -5 13 -17 21 -22 15 -26 19
-58 58 -11 13 -20 20 -20 16 0 -4 -9 3 -20 16 -32 39 -36 43 -58 58 -12 8 -19
17 -18 20 2 3 -2 12 -10 19 -8 7 -14 10 -14 7 0 -3 -26 20 -57 51 -32 31 -57
61 -55 68 2 6 0 8 -4 3 -10 -10 -64 42 -64 62 0 9 -117 131 -260 273 -143 141
-260 262 -260 267 0 15 -217 231 -224 224 -3 -4 -6 -1 -6 6 0 6 -18 28 -40 48
-22 21 -40 42 -40 49 0 15 -146 164 -154 157 -3 -4 -6 -1 -6 5 0 13 -47 62
-60 62 -5 0 -12 11 -16 24 -3 13 -31 49 -62 80 -32 31 -62 61 -69 68 -6 7 -28
26 -47 42 -20 15 -36 35 -36 43 0 8 -38 53 -85 99 -47 46 -85 88 -85 94 0 6
-22 33 -50 60 -27 27 -50 47 -50 44 0 -2 -6 1 -14 8 -8 7 -12 16 -10 19 1 3
-6 12 -17 19 -10 8 -19 19 -19 25 0 15 -67 85 -82 85 -6 0 -8 3 -5 6 7 8 -31
44 -46 44 -5 0 -7 6 -4 14 5 12 -4 25 -45 63 -7 7 -18 18 -24 25 -6 7 -21 20
-33 28 -11 8 -21 20 -21 27 0 7 -27 40 -60 73 -33 33 -60 64 -60 68 0 11 -68
82 -79 82 -5 0 -14 12 -19 28 -11 29 -50 72 -101 111 -17 13 -28 28 -25 33 4
6 -14 30 -40 54 -25 25 -46 50 -46 56 0 6 -22 32 -50 58 -27 26 -50 53 -50 60
0 14 -38 50 -52 50 -5 0 -7 4 -4 8 3 5 -4 15 -15 22 -10 8 -19 19 -19 25 0 12
-38 54 -68 74 -12 8 -18 19 -15 24 3 5 -13 26 -35 47 -23 20 -39 40 -36 43 4
3 -14 26 -40 50 -25 25 -46 50 -46 56 0 6 -16 27 -35 45 -19 19 -35 38 -35 42
0 4 -16 22 -35 41 -19 19 -35 39 -35 45 0 6 -16 25 -35 44 -19 18 -35 37 -35
41 0 5 -16 26 -35 46 -19 20 -35 41 -35 46 0 5 -15 22 -33 38 -18 16 -32 34
-30 40 2 6 -10 22 -27 36 -16 14 -30 31 -30 37 0 5 -16 25 -35 44 -19 18 -32
36 -29 38 2 3 -9 19 -26 36 -16 18 -30 35 -30 40 0 11 -49 62 -60 62 -6 0 -10
7 -10 16 0 9 -11 27 -25 40 -14 13 -25 28 -25 35 0 6 -11 22 -25 35 -14 13
-25 30 -25 39 0 8 -4 15 -8 15 -15 0 -52 37 -45 44 4 4 -7 20 -24 35 -18 16
-29 31 -25 35 3 4 -9 21 -28 38 -19 16 -34 33 -32 36 1 4 -5 15 -13 25 -8 9
-15 24 -15 31 0 8 -9 18 -20 21 -11 4 -18 11 -15 16 4 5 1 9 -4 9 -6 0 -11 6
-11 14 0 8 -13 24 -29 37 -16 13 -27 27 -24 31 2 5 -10 22 -27 38 -17 16 -30
31 -28 34 2 3 -5 15 -14 26 -10 11 -18 24 -18 29 0 5 -14 19 -30 31 -17 12
-28 26 -24 31 3 6 -4 18 -15 28 -12 10 -21 24 -21 30 0 7 -11 22 -25 35 -14
13 -25 27 -25 32 0 5 -9 16 -19 23 -11 8 -17 20 -14 27 2 7 -5 19 -16 26 -12
7 -21 19 -21 27 0 7 -11 24 -25 37 -14 13 -25 30 -25 37 0 8 -7 17 -15 21 -8
3 -15 14 -15 23 0 10 -9 25 -20 33 -11 8 -20 19 -20 25 0 6 -9 17 -19 25 -11
7 -18 18 -15 22 3 5 -2 17 -13 26 -20 19 -38 46 -52 77 -5 11 -20 29 -34 39
-14 11 -23 25 -20 32 2 7 -5 19 -16 26 -12 7 -21 20 -21 28 0 8 -9 21 -20 28
-11 7 -17 18 -14 27 4 8 1 15 -5 15 -6 0 -11 6 -11 13 0 7 -9 19 -19 26 -11 8
-17 20 -14 27 2 7 -5 19 -16 26 -12 7 -21 20 -21 29 0 9 -7 19 -15 23 -8 3
-15 14 -15 23 0 10 -9 25 -20 33 -11 8 -20 19 -20 25 0 6 -9 16 -20 23 -12 7
-18 17 -14 23 3 5 -4 18 -15 28 -12 10 -21 23 -21 30 0 6 -4 11 -10 11 -5 0
-7 7 -4 15 4 9 -3 23 -15 34 -11 10 -21 22 -21 27 0 5 -9 15 -20 22 -11 7 -17
18 -14 27 4 8 1 15 -5 15 -6 0 -11 7 -11 16 0 9 -8 23 -17 30 -10 7 -18 16
-19 21 -2 19 -19 49 -36 64 -10 9 -18 24 -18 33 0 10 -5 14 -10 11 -6 -4 -13
7 -16 24 -4 17 -10 31 -15 31 -5 0 -9 6 -9 13 0 7 -9 18 -20 25 -11 7 -17 18
-14 27 4 8 1 15 -5 15 -6 0 -11 9 -11 20 0 11 -4 20 -10 20 -5 0 -10 6 -10 14
0 8 -9 21 -20 29 -11 8 -17 16 -14 19 7 8 -17 50 -38 66 -9 7 -15 19 -12 27 4
10 0 15 -11 15 -9 0 -14 4 -10 10 7 11 -14 50 -37 68 -9 7 -15 19 -12 27 4 8
1 15 -5 15 -6 0 -11 9 -11 20 0 11 -4 20 -10 20 -5 0 -10 7 -10 15 0 8 -5 15
-11 15 -5 0 -8 4 -4 10 3 5 -3 18 -15 30 -11 11 -20 27 -20 35 0 8 -4 15 -10
15 -5 0 -10 7 -10 15 0 8 -5 15 -11 15 -5 0 -8 4 -5 9 6 10 -16 61 -26 61 -5
0 -8 9 -8 20 0 11 -4 20 -10 20 -5 0 -10 6 -10 14 0 8 -7 16 -15 20 -8 3 -15
15 -15 26 0 11 -4 20 -9 20 -9 0 -24 38 -22 53 1 4 -5 10 -13 13 -8 3 -12 12
-9 20 3 8 0 14 -6 14 -6 0 -11 9 -11 20 0 11 -4 20 -9 20 -10 0 -24 38 -22 58
1 6 -5 12 -13 12 -10 0 -13 6 -10 15 4 8 1 15 -5 15 -6 0 -11 9 -11 20 0 11
-4 20 -9 20 -8 0 -24 37 -22 53 1 4 -4 7 -9 7 -6 0 -10 9 -10 20 0 11 -4 20
-10 20 -5 0 -10 11 -10 25 0 14 -5 25 -11 25 -5 0 -8 4 -5 9 6 10 -16 61 -26
61 -5 0 -8 9 -8 20 0 11 -4 20 -10 20 -5 0 -10 7 -10 15 0 8 -5 15 -11 15 -6
0 -9 7 -5 15 3 8 1 15 -4 15 -6 0 -10 14 -10 30 0 17 -4 30 -10 30 -5 0 -10 7
-10 15 0 8 -4 15 -9 15 -10 0 -24 38 -22 58 1 6 -3 12 -9 12 -5 0 -10 11 -10
25 0 14 -4 25 -10 25 -5 0 -10 9 -10 20 0 11 -4 20 -9 20 -11 0 -24 38 -21 63
1 9 -4 17 -9 17 -6 0 -11 9 -11 20 0 11 -4 20 -10 20 -5 0 -10 11 -10 25 0 14
-4 25 -10 25 -5 0 -7 7 -4 15 4 8 1 15 -5 15 -6 0 -11 14 -11 30 0 17 -4 30
-10 30 -5 0 -10 7 -10 15 0 8 -4 15 -10 15 -5 0 -10 11 -10 25 0 14 -4 25 -10
25 -5 0 -7 7 -4 15 4 8 1 15 -5 15 -6 0 -11 14 -11 30 0 17 -3 30 -7 30 -13 0
-32 50 -26 66 3 8 0 14 -6 14 -6 0 -11 14 -11 30 0 17 -4 30 -10 30 -5 0 -10
7 -10 15 0 8 -4 15 -10 15 -5 0 -10 11 -10 24 0 14 -4 27 -9 30 -5 3 -7 15 -4
26 3 12 -1 22 -10 26 -9 3 -13 12 -10 20 3 8 0 14 -6 14 -6 0 -11 9 -11 20 0
11 -4 28 -9 38 -16 30 -24 56 -22 75 1 9 -3 17 -8 17 -6 0 -11 14 -11 30 0 17
-4 30 -10 30 -5 0 -10 11 -10 25 0 14 -5 25 -11 25 -6 0 -8 8 -4 19 3 11 1 22
-5 26 -5 3 -10 17 -10 31 0 13 -4 24 -10 24 -5 0 -10 9 -10 20 0 11 -4 29 -10
40 -5 11 -15 29 -20 40 -6 12 -8 25 -5 30 4 6 0 17 -8 25 -9 8 -13 24 -10 35
3 11 0 20 -6 20 -6 0 -11 16 -11 35 0 19 -4 35 -10 35 -5 0 -10 11 -10 24 0
14 -4 27 -9 30 -5 3 -7 15 -4 26 3 11 0 20 -6 20 -6 0 -11 16 -11 35 0 19 -4
35 -10 35 -5 0 -10 11 -10 24 0 14 -5 28 -11 32 -6 3 -8 16 -5 29 3 13 0 27
-8 34 -8 7 -12 21 -9 31 3 11 0 20 -6 20 -6 0 -11 15 -11 34 0 19 -4 37 -9 40
-10 7 -25 73 -22 99 1 9 -3 17 -8 17 -6 0 -11 16 -11 35 0 19 -4 35 -10 35 -5
0 -10 15 -10 34 0 19 -4 38 -10 41 -5 3 -10 16 -10 28 0 45 -12 107 -21 107
-5 0 -9 16 -9 35 0 19 -4 35 -10 35 -5 0 -10 15 -10 34 0 19 -5 38 -11 42 -6
3 -8 17 -5 30 4 14 2 24 -4 24 -5 0 -10 18 -10 41 0 24 -4 38 -10 34 -6 -4
-10 11 -10 39 0 25 -4 47 -9 50 -9 6 -26 110 -22 140 2 11 -2 16 -8 12 -7 -5
-11 7 -11 34 0 22 -4 48 -9 58 -16 31 -33 121 -26 142 4 11 2 20 -4 20 -6 0
-11 20 -11 45 0 25 -4 45 -10 45 -5 0 -10 20 -10 45 0 25 -4 45 -9 45 -8 0
-22 87 -24 148 0 17 -4 32 -9 32 -4 0 -8 25 -8 55 0 30 -4 55 -9 55 -5 0 -12
26 -14 58 -3 31 -10 89 -17 127 -6 39 -11 87 -11 108 -1 20 -5 37 -10 37 -5 0
-9 32 -9 70 0 39 -4 70 -9 70 -8 0 -22 119 -25 208 0 23 -4 42 -8 42 -5 0 -8
36 -8 80 0 47 -4 80 -10 80 -6 0 -10 37 -10 90 0 50 -4 90 -8 90 -10 0 -24
216 -22 327 1 41 -3 74 -9 78 -7 4 -11 55 -11 136 0 71 -4 129 -8 129 -12 0
-27 539 -27 940 0 395 15 910 27 910 4 0 8 54 8 119 0 74 4 122 11 126 5 4 10
34 9 68 -3 100 12 317 22 317 4 0 8 39 8 86 0 54 4 83 10 79 6 -4 10 19 10 63
0 38 3 72 7 76 4 4 8 26 9 49 3 94 17 207 25 207 5 0 9 27 9 60 0 33 4 60 9
60 4 0 11 41 15 90 4 50 11 102 16 116 6 14 10 43 10 65 0 21 5 39 10 39 6 0
10 25 10 55 0 30 4 55 8 55 5 0 9 15 9 33 2 60 16 147 24 147 5 0 9 20 9 45 0
25 5 45 11 45 5 0 9 8 8 18 -4 30 13 132 22 132 5 0 9 20 9 45 0 25 5 45 10
45 6 0 10 20 10 45 0 25 4 45 9 45 4 0 9 12 9 28 2 47 14 102 23 102 5 0 9 15
9 34 0 19 5 38 10 41 6 3 10 26 10 51 0 24 3 44 8 44 4 0 8 10 9 23 4 45 15
87 24 87 5 0 9 16 9 35 0 19 4 35 9 35 5 0 12 29 16 65 3 36 11 67 16 70 5 4
9 17 9 31 0 13 5 24 10 24 6 0 10 16 10 35 0 19 4 35 10 35 5 0 9 12 9 28 0
40 12 92 22 92 5 0 9 11 9 25 0 14 5 25 10 25 6 0 10 18 10 40 0 22 4 40 9 40
5 0 7 9 4 20 -3 11 0 20 6 20 6 0 11 11 11 25 0 14 5 25 10 25 6 0 10 14 10
30 0 17 4 30 9 30 4 0 11 23 14 52 4 28 11 56 17 62 5 5 10 20 10 33 0 13 5
23 11 23 5 0 9 8 8 18 -3 31 1 43 11 37 5 -3 9 2 8 12 -2 27 13 83 23 83 5 0
9 14 9 30 0 17 5 30 10 30 6 0 10 11 10 24 0 14 5 28 10 31 6 4 8 11 5 16 -4
5 -1 9 4 9 6 0 11 11 11 25 0 14 5 25 10 25 6 0 10 14 10 30 0 17 5 30 11 30
5 0 9 8 8 18 -1 9 1 26 6 37 22 58 31 75 37 75 5 0 8 14 8 30 0 17 5 30 11 30
6 0 9 6 6 14 -6 16 13 66 26 66 4 0 7 14 7 30 0 17 5 30 11 30 6 0 9 6 6 14
-3 8 1 17 9 20 10 4 13 13 9 26 -4 11 -2 20 4 20 6 0 11 7 11 15 0 8 5 15 10
15 6 0 10 14 10 30 0 17 5 30 11 30 6 0 9 7 5 15 -3 8 -1 15 4 15 6 0 10 11
10 25 0 14 5 25 10 25 6 0 10 9 10 20 0 11 5 20 10 20 6 0 10 14 10 31 0 20 4
28 12 23 8 -5 9 -2 5 9 -3 10 -2 17 3 17 6 0 10 9 10 20 0 11 5 20 10 20 6 0
10 11 10 25 0 14 5 25 11 25 6 0 9 6 6 14 -3 8 1 20 8 26 8 7 12 16 9 21 -3 5
0 9 5 9 6 0 11 11 11 25 0 14 5 25 10 25 6 0 10 9 10 20 0 11 5 20 11 20 6 0
9 7 5 15 -3 8 -1 15 4 15 6 0 10 11 10 25 0 14 5 25 10 25 6 0 10 9 10 20 0
11 5 20 11 20 6 0 9 7 5 15 -3 9 0 15 10 15 8 0 14 6 13 13 -2 17 12 57 20 57
8 0 28 47 36 88 4 17 10 32 14 32 4 0 13 16 21 35 8 19 18 35 23 35 5 0 7 7 3
15 -3 8 -1 15 4 15 6 0 10 9 10 20 0 11 5 20 10 20 6 0 10 7 10 15 0 8 5 15
10 15 6 0 10 9 10 20 0 11 5 20 11 20 6 0 9 7 5 15 -3 8 -1 15 4 15 6 0 10 9
10 20 0 11 5 20 10 20 6 0 10 7 10 15 0 8 5 15 10 15 6 0 10 9 10 19 0 11 5
23 10 26 6 4 8 11 5 16 -4 5 -2 9 3 9 4 0 14 16 22 35 8 19 17 35 21 35 5 0
11 16 15 35 3 19 10 35 15 35 5 0 9 7 9 15 0 8 5 15 10 15 6 0 10 9 10 20 0
11 5 20 11 20 6 0 9 7 5 15 -3 8 -1 15 4 15 6 0 10 9 10 20 0 11 5 20 10 20 6
0 10 9 10 21 0 11 4 18 9 15 9 -6 26 22 23 37 -1 4 3 7 8 7 6 0 10 9 10 20 0
11 3 20 8 20 7 0 42 72 42 86 0 4 8 14 18 23 24 23 44 60 37 71 -4 6 -1 10 4
10 6 0 11 7 11 15 0 8 5 15 10 15 6 0 10 7 10 15 0 8 9 24 20 35 12 12 18 25
15 30 -4 6 -1 10 4 10 6 0 11 7 11 15 0 8 5 15 10 15 6 0 10 8 10 19 0 10 7
24 15 31 8 7 15 19 15 26 0 8 5 14 10 14 6 0 10 5 10 11 0 7 10 20 21 30 12
11 19 25 15 34 -3 8 -1 15 4 15 6 0 10 7 10 15 0 8 5 15 10 15 6 0 10 8 10 18
0 9 9 23 20 30 11 7 17 18 14 27 -4 8 -1 15 5 15 6 0 11 5 11 11 0 7 9 20 21
30 11 10 18 22 15 28 -4 5 2 16 11 23 24 18 45 56 38 68 -4 6 1 10 10 10 9 0
13 5 10 10 -3 6 -1 10 4 10 6 0 11 5 11 11 0 7 8 19 18 28 20 17 36 50 33 65
-1 5 7 15 19 23 11 8 20 21 20 29 0 8 4 14 9 14 5 0 13 10 17 23 4 12 15 29
24 37 9 8 20 25 24 38 4 12 12 22 17 22 5 0 9 7 9 15 0 8 4 15 9 15 5 0 16 16
25 35 9 19 21 35 26 35 6 0 10 7 10 16 0 9 9 25 21 35 11 10 18 22 15 27 -3 4
4 15 15 22 10 8 19 19 19 24 0 5 9 17 21 27 11 10 18 22 15 27 -3 4 4 15 15
22 10 8 19 20 19 28 0 7 11 23 25 36 14 13 25 28 25 35 0 6 4 11 9 11 5 0 16
15 24 33 9 17 25 39 36 47 12 8 21 23 21 33 0 9 7 20 15 23 8 4 15 13 15 21 0
8 14 26 31 40 16 14 28 32 25 39 -3 8 -2 14 3 14 15 0 51 37 51 52 0 8 11 24
25 34 14 10 25 26 25 35 0 9 11 25 25 35 14 10 25 26 25 35 0 8 16 28 35 43
19 16 35 34 35 42 0 8 5 14 11 14 5 0 8 4 5 8 -2 4 8 16 24 27 16 11 31 32 34
49 3 16 9 26 12 23 7 -7 54 38 54 53 0 5 17 26 37 45 20 19 34 37 31 41 -4 3
13 25 38 48 24 23 44 46 44 50 0 4 20 27 45 52 25 24 45 49 45 56 0 7 27 38
60 70 33 31 60 62 60 69 0 6 32 42 71 79 40 38 68 73 65 79 -4 6 0 11 10 11
10 0 15 3 11 6 -3 3 15 25 40 47 85 79 152 150 148 157 -2 4 6 16 18 27 12 12
30 31 40 44 9 13 17 19 17 15 0 -5 9 1 20 14 11 13 20 28 20 33 0 6 3 7 6 4 8
-8 64 50 64 66 0 6 3 8 6 4 7 -7 184 170 184 184 0 6 3 8 8 6 4 -2 17 6 30 19
12 13 20 24 17 24 -3 0 0 6 7 14 7 8 16 12 19 10 3 -1 12 6 20 18 15 22 19 26
58 58 13 11 21 20 18 20 -4 0 1 9 10 20 10 11 23 20 30 20 7 0 13 5 13 10 0 6
6 10 13 10 13 0 121 102 146 138 8 12 18 19 23 16 4 -3 8 1 8 8 0 16 36 49 49
45 5 -1 40 30 77 68 37 39 71 69 76 67 11 -3 68 52 68 67 0 7 4 10 8 7 4 -2
18 9 31 25 13 16 27 26 32 23 5 -3 20 6 34 20 14 15 23 26 21 26 -3 0 2 9 11
20 10 11 23 20 31 20 7 0 10 5 7 10 -3 6 3 10 14 10 12 0 21 4 21 9 0 5 8 12
18 15 9 3 25 20 34 37 10 16 23 27 28 24 6 -4 27 11 46 32 20 21 40 37 45 35
12 -3 60 44 52 51 -3 4 8 9 23 13 28 7 44 20 73 62 8 11 19 18 26 16 7 -3 25
11 40 31 16 19 36 35 44 35 9 0 25 11 35 25 10 14 26 25 35 25 9 0 23 10 31
21 25 36 41 49 58 49 9 0 25 14 34 31 11 18 22 27 29 23 7 -4 24 7 41 26 15
18 31 30 34 27 4 -4 19 7 34 23 16 17 33 30 39 30 6 0 11 5 11 11 0 5 5 7 10
4 6 -3 10 -1 10 4 0 6 6 11 14 11 8 0 24 14 36 30 12 17 26 28 31 24 6 -3 23
9 38 27 16 18 33 29 40 25 6 -4 11 -1 11 9 0 9 5 13 10 10 6 -3 10 -1 10 4 0
6 8 11 18 11 11 0 24 11 30 25 8 18 19 25 38 25 15 0 25 3 21 6 -7 8 17 34 32
34 6 0 11 5 11 11 0 5 5 7 10 4 6 -3 10 -1 10 4 0 6 8 11 18 11 9 0 23 9 30
20 7 12 16 19 21 16 4 -3 17 4 29 14 12 11 25 20 29 20 4 0 19 14 32 30 13 16
27 27 33 24 5 -3 17 4 27 15 10 12 23 21 29 21 5 0 12 7 16 15 3 8 17 15 31
15 15 0 24 4 21 9 -6 9 9 18 28 19 5 0 13 7 18 16 5 9 14 14 19 10 6 -3 18 4
28 15 10 12 22 21 27 21 5 0 15 9 22 20 7 12 17 18 23 14 5 -3 18 4 28 15 10
12 22 21 25 21 4 0 14 7 22 15 9 8 24 15 35 15 10 0 19 5 19 10 0 6 6 10 13
10 7 0 18 9 25 20 7 12 17 18 23 14 5 -3 18 3 27 13 18 20 51 38 66 34 4 -1
16 7 26 19 9 11 20 20 24 20 3 0 15 9 26 20 12 12 25 18 30 15 6 -4 10 -1 10
4 0 6 8 11 18 11 9 0 23 9 30 20 7 11 19 20 27 20 8 0 15 5 15 11 0 5 5 7 11
4 5 -4 18 2 27 12 19 22 51 37 70 34 6 -1 12 5 12 14 0 9 5 13 10 10 6 -3 10
-1 10 4 0 6 7 11 15 11 8 0 15 4 15 9 0 9 38 24 54 22 4 -1 15 7 25 17 16 19
50 36 64 33 4 0 10 6 13 14 3 8 10 12 16 9 5 -3 17 3 26 13 19 22 51 37 70 34
6 -1 12 5 12 13 0 10 6 13 15 10 8 -4 15 -2 15 3 0 12 62 48 78 45 6 -2 12 2
12 8 0 5 9 10 21 10 11 0 17 5 14 10 -3 6 1 10 9 10 9 0 25 9 36 20 12 12 25
18 30 15 6 -4 10 -1 10 4 0 6 9 11 20 11 11 0 20 5 20 10 0 6 7 10 15 10 8 0
15 5 15 11 0 6 7 9 15 5 8 -3 15 -1 15 4 0 6 9 10 20 10 11 0 20 5 20 10 0 6
5 10 10 10 6 0 21 9 33 20 12 11 27 18 35 15 7 -2 10 0 7 5 -3 6 3 10 14 10
10 0 21 3 23 8 6 13 66 42 88 42 11 0 18 5 15 10 -3 6 3 10 14 10 12 0 21 5
21 10 0 6 7 10 15 10 8 0 15 5 15 11 0 6 6 9 14 6 8 -3 17 1 20 8 3 8 12 12
21 9 8 -3 15 -1 15 5 0 6 9 11 20 11 11 0 20 5 20 10 0 6 7 10 15 10 8 0 15 4
15 10 0 5 7 7 15 4 8 -4 15 -1 15 5 0 6 9 11 20 11 11 0 20 4 20 9 0 9 38 24
53 22 4 -1 10 5 13 13 3 8 12 12 20 9 8 -3 14 0 14 6 0 6 9 11 20 11 11 0 20
5 20 10 0 6 7 10 15 10 8 0 15 5 15 11 0 6 7 9 15 5 8 -3 15 -1 15 4 0 6 9 10
19 10 11 0 21 3 23 8 5 13 85 52 92 45 3 -3 6 -1 6 5 0 7 9 12 20 12 11 0 20
3 20 8 0 9 92 48 104 44 5 -2 12 1 15 5 11 15 128 73 135 66 3 -3 6 -1 6 5 0
7 5 12 10 12 6 0 29 9 52 20 22 11 45 17 51 13 6 -3 7 -1 3 5 -5 8 2 12 20 12
15 0 24 3 21 7 -9 9 64 34 76 26 6 -3 7 -1 3 5 -7 12 5 16 33 13 7 -2 10 2 6
8 -3 6 1 11 10 11 8 0 23 4 33 9 99 51 122 61 135 61 9 0 31 9 50 20 21 12 41
18 52 13 13 -4 16 -3 11 5 -5 8 0 12 13 12 12 0 21 5 21 10 0 6 7 10 15 10 9
0 38 11 65 25 27 14 55 25 63 25 7 0 33 10 57 21 24 12 61 24 82 27 21 2 36 7
33 10 -7 8 125 62 152 62 13 0 23 5 23 10 0 6 6 10 14 10 8 0 33 9 57 19 24
11 47 17 51 15 4 -3 8 0 8 5 0 6 14 11 30 11 17 0 30 3 30 8 0 9 90 42 114 42
9 0 16 5 16 10 0 6 9 10 20 10 11 0 45 11 76 25 31 14 63 25 70 25 8 0 22 4
32 9 9 5 55 22 102 37 47 15 114 37 150 50 36 12 83 28 105 34 22 7 64 21 93
31 28 10 60 15 69 12 11 -4 14 -3 9 5 -5 8 3 12 23 12 17 0 31 5 31 10 0 6 9
10 20 10 11 0 37 7 58 16 20 8 52 16 69 16 18 0 30 4 27 9 -3 5 3 9 14 9 10 0
45 9 78 20 32 11 64 18 72 15 7 -2 10 0 7 5 -3 6 3 10 15 10 11 0 28 4 38 9 9
5 62 21 117 36 55 14 116 31 135 36 19 5 70 20 114 34 43 14 88 25 100 25 11
0 47 9 79 20 32 11 88 26 125 35 37 9 110 27 162 40 225 57 631 150 820 189
332 69 476 97 600 121 74 14 158 29 185 35 189 35 732 124 860 140 49 6 92 13
94 16 11 10 41 2 41 -11z m355 -37101 c105 -87 273 -229 375 -314 102 -86 286
-241 410 -345 124 -104 257 -216 296 -249 39 -34 180 -153 314 -266 134 -113
349 -295 479 -405 130 -110 319 -270 421 -356 309 -262 880 -749 1570 -1338
573 -490 1757 -1515 2329 -2016 848 -742 899 -787 1356 -1195 259 -231 834
-748 900 -810 39 -36 167 -153 285 -260 271 -246 739 -682 1120 -1044 341
-324 1510 -1489 1781 -1776 958 -1014 1631 -1821 2144 -2569 669 -977 1170
-1899 1543 -2841 16 -41 41 -106 56 -145 14 -38 41 -110 59 -160 65 -173 203
-619 265 -855 82 -309 117 -463 176 -770 109 -557 161 -984 208 -1705 15 -229
15 -1074 0 -1310 -47 -736 -98 -1183 -198 -1730 -67 -362 -189 -890 -263
-1130 -10 -33 -33 -109 -51 -170 -28 -95 -166 -508 -220 -660 -54 -151 -203
-518 -285 -700 -8 -16 -36 -80 -64 -142 -109 -240 -366 -733 -518 -990 -122
-208 -151 -255 -264 -431 -621 -964 -1359 -1812 -2219 -2551 -709 -609 -1429
-1102 -2290 -1565 -241 -130 -629 -324 -805 -404 -218 -98 -298 -133 -425
-187 -74 -31 -160 -67 -190 -80 -64 -27 -367 -147 -425 -168 -22 -8 -85 -32
-140 -52 -402 -150 -747 -266 -1235 -414 -514 -156 -1119 -308 -1750 -439
-348 -73 -1077 -200 -1300 -227 -19 -2 -134 -18 -255 -34 -254 -35 -702 -86
-890 -101 -71 -7 -197 -18 -280 -26 -320 -31 -1091 -70 -1645 -85 -848 -22
-1969 15 -2950 96 -390 33 -859 79 -1155 116 -132 16 -262 32 -290 35 -147 15
-820 112 -1080 155 -99 17 -193 32 -210 34 -254 34 -1226 220 -1810 347 -201
44 -626 141 -820 188 -277 67 -504 123 -570 140 -38 10 -124 33 -190 50 -546
142 -1139 309 -1570 440 -49 15 -146 45 -215 65 -337 101 -551 170 -1120 359
-444 148 -549 184 -810 276 -96 34 -211 75 -255 90 -75 27 -120 43 -372 136
-54 19 -127 46 -163 59 -36 13 -114 42 -175 65 -60 23 -144 55 -185 70 -84 31
-350 134 -450 173 -36 14 -64 31 -62 38 2 6 40 62 86 123 46 61 125 170 176
241 52 72 123 171 159 221 37 50 88 122 116 160 198 276 281 393 348 489 43
61 93 133 113 160 473 672 1212 1762 1583 2335 41 63 108 167 149 230 42 63
104 160 140 215 35 55 79 123 97 150 30 46 123 193 214 337 44 70 144 228 204
323 51 80 348 560 384 620 13 22 49 81 80 130 72 114 266 433 308 505 17 30
114 192 215 360 101 168 207 346 235 395 28 50 75 131 104 180 29 50 62 106
73 125 28 49 126 216 158 270 15 25 67 115 115 200 48 85 105 184 125 220 236
410 635 1131 949 1713 227 422 234 435 433 817 97 184 201 385 233 445 87 166
746 1480 859 1715 55 113 119 246 144 295 24 50 70 146 102 215 32 69 97 205
144 303 47 98 86 180 86 182 0 2 30 66 66 142 36 76 72 152 79 168 101 220
380 827 390 850 105 236 194 435 220 495 18 41 63 143 100 225 37 83 77 175
90 205 25 60 82 193 109 253 9 20 23 54 32 75 26 58 84 192 109 252 13 30 40
93 60 140 20 47 53 123 72 170 39 95 62 149 123 295 23 55 67 161 97 235 30
74 64 151 74 172 10 20 19 42 19 47 0 6 14 40 30 76 17 36 30 68 30 71 0 3 16
45 36 92 19 48 48 119 64 157 15 39 38 95 51 125 12 30 35 89 52 130 38 98 75
192 125 315 38 96 82 206 135 345 81 210 124 321 176 455 79 203 133 345 166
435 15 41 40 109 56 150 54 144 111 295 136 365 14 39 36 97 49 130 13 33 30
80 38 105 8 25 35 101 61 170 26 69 55 150 65 180 10 30 35 100 55 155 20 55
50 136 65 180 16 44 47 132 70 195 48 134 91 258 160 460 27 80 69 204 95 275
25 72 77 225 115 340 38 116 74 224 80 240 5 17 49 147 96 290 47 143 99 298
115 345 33 99 332 1049 385 1225 20 66 49 161 64 210 15 50 42 137 60 195 17
58 44 146 60 195 15 50 44 149 65 220 20 72 50 175 66 230 16 55 43 145 59
200 16 55 44 154 64 220 42 147 84 293 125 445 32 116 61 220 125 450 38 135
74 268 130 480 20 74 49 185 65 245 16 61 44 164 61 230 17 66 45 170 61 230
16 61 38 146 49 190 10 44 69 280 130 525 124 501 153 618 205 840 19 85 49
209 65 275 43 177 88 372 101 438 l11 59 21 -20 c12 -10 108 -90 212 -178z
m-18010 -28412 c113 -56 885 -412 1195 -551 113 -51 234 -105 270 -121 36 -16
164 -72 285 -125 121 -53 245 -107 275 -120 30 -14 136 -59 235 -100 99 -42
205 -87 235 -100 160 -71 750 -313 985 -404 77 -30 137 -55 262 -107 45 -19
88 -34 96 -34 7 0 22 -7 33 -15 17 -13 17 -14 2 -15 -10 0 -18 -7 -18 -15 0
-8 -11 -25 -24 -38 -13 -13 -27 -33 -30 -45 -4 -12 -12 -22 -17 -22 -5 0 -9
-9 -9 -20 0 -12 -18 -39 -40 -61 -22 -22 -40 -36 -40 -30 0 7 -27 11 -70 11
-40 0 -70 -4 -70 -10 0 -5 -11 -10 -24 -10 -19 0 -24 -6 -30 -37 -3 -21 -6
-66 -6 -100 l0 -63 25 12 c14 6 25 15 25 20 0 4 5 8 10 8 17 0 11 -20 -15 -48
-14 -15 -25 -30 -25 -35 0 -4 -11 -20 -25 -35 -14 -15 -25 -31 -25 -37 0 -5
-14 -21 -30 -34 -17 -13 -30 -29 -30 -35 0 -7 -11 -23 -25 -36 -14 -13 -25
-29 -25 -36 0 -7 -11 -21 -25 -32 -14 -11 -25 -27 -25 -35 0 -9 -11 -24 -25
-35 -14 -11 -25 -25 -25 -31 0 -7 -11 -22 -25 -35 -14 -13 -25 -28 -25 -33 0
-5 -13 -22 -30 -38 -16 -16 -28 -31 -25 -33 2 -3 -9 -17 -25 -32 -17 -16 -30
-33 -30 -39 0 -6 -16 -26 -35 -45 -19 -20 -35 -40 -35 -46 0 -5 -11 -20 -25
-32 -14 -12 -25 -27 -25 -34 0 -7 -11 -21 -25 -32 -14 -11 -25 -27 -25 -35 0
-9 -11 -24 -25 -35 -14 -11 -25 -25 -25 -31 0 -6 -16 -27 -35 -45 -19 -19 -35
-37 -35 -41 0 -3 -11 -18 -25 -33 -14 -15 -25 -30 -25 -34 0 -5 -16 -25 -35
-45 -19 -20 -35 -41 -35 -46 0 -6 -11 -20 -25 -33 -14 -13 -25 -28 -25 -35 0
-6 -16 -26 -35 -45 -19 -18 -35 -35 -35 -39 0 -3 -11 -17 -25 -31 -14 -14 -25
-30 -25 -35 0 -6 -16 -26 -35 -45 -19 -18 -35 -39 -35 -45 0 -7 -14 -25 -32
-41 -17 -15 -29 -31 -25 -34 3 -3 -7 -17 -24 -31 -16 -14 -29 -30 -29 -37 0
-6 -16 -27 -35 -45 -20 -18 -34 -35 -31 -38 2 -2 -12 -22 -31 -43 -19 -21 -35
-41 -34 -44 1 -4 -14 -22 -34 -41 -19 -19 -35 -41 -35 -50 0 -8 -4 -15 -10
-15 -5 0 -10 -16 -10 -36 0 -29 -8 -44 -40 -76 -22 -22 -40 -35 -40 -29 0 7
-24 11 -65 11 -37 0 -65 -4 -65 -10 0 -5 -13 -10 -29 -10 -25 0 -29 -4 -35
-37 -10 -65 -7 -143 6 -143 6 0 0 -13 -15 -28 -15 -15 -27 -32 -27 -37 0 -4
-16 -23 -35 -42 -19 -19 -35 -38 -35 -44 0 -5 -16 -25 -35 -43 -19 -19 -35
-39 -35 -44 0 -5 -20 -29 -45 -53 -25 -24 -45 -48 -45 -54 0 -6 -16 -26 -35
-44 -20 -18 -34 -35 -31 -38 2 -2 -12 -22 -31 -43 -19 -21 -35 -41 -34 -44 1
-4 -18 -26 -41 -49 -24 -23 -48 -52 -54 -62 -16 -29 -44 -29 -115 -1 -34 15
-70 26 -78 26 -21 0 -174 50 -185 61 -6 5 -23 9 -38 9 -15 0 -28 4 -28 9 0 6
-8 9 -17 9 -16 -1 -96 21 -148 41 -46 18 -191 62 -203 61 -7 0 -10 5 -7 10 4
6 -6 10 -24 10 -16 0 -60 11 -98 24 -37 13 -97 32 -132 42 -36 10 -75 28 -89
41 l-24 22 -5 500 c-4 276 -10 501 -15 501 -4 0 -8 99 -8 220 0 121 -4 220 -8
220 -10 0 -26 394 -23 527 1 48 -2 84 -8 88 -7 4 -11 56 -11 136 0 84 -4 128
-10 124 -6 -4 -10 32 -10 102 0 59 -5 126 -10 147 -5 22 -12 122 -16 223 -4
100 -11 183 -15 183 -5 0 -9 47 -9 105 0 63 -4 105 -10 105 -6 0 -10 36 -10
88 -1 48 -5 107 -10 132 -5 25 -12 107 -16 182 -4 76 -11 135 -16 132 -4 -3
-8 36 -8 85 0 50 -4 91 -9 91 -8 0 -22 163 -24 273 0 26 -4 47 -9 47 -4 0 -8
36 -8 80 0 44 -4 80 -9 80 -5 0 -12 37 -15 83 -3 45 -8 108 -12 140 -7 68 -18
68 141 -11z"/>
<path d="M170380 118240 c0 -40 4 -70 10 -70 6 0 10 -11 10 -25 0 -20 5 -25
25 -25 14 0 25 -4 25 -10 0 -6 30 -10 71 -10 43 0 69 4 67 10 -4 14 -190 200
-200 200 -4 0 -8 -31 -8 -70z"/>
<path d="M168620 117650 c-94 -94 -95 -94 -65 -98 16 -2 58 -1 92 3 l62 6 6
52 c4 29 5 70 3 92 l-3 40 -95 -95z"/>
<path d="M166405 117096 c-47 -46 -85 -89 -85 -95 0 -7 24 -11 60 -11 33 0 60
4 60 10 0 6 11 10 25 10 20 0 25 5 25 25 0 14 5 25 10 25 6 0 10 27 10 60 0
34 -4 60 -10 60 -6 0 -48 -38 -95 -84z"/>
<path d="M165303 116547 c-46 -46 -83 -89 -83 -95 0 -8 20 -12 60 -12 33 0 60
4 60 10 0 6 11 10 25 10 20 0 25 5 25 25 0 14 5 25 10 25 6 0 10 27 10 60 0
40 -4 60 -12 60 -6 0 -49 -37 -95 -83z"/>
<path d="M164194 115988 l-89 -93 35 -3 c19 -2 59 -1 88 3 49 6 52 8 52 36 0
16 5 29 10 29 6 0 10 27 10 60 0 33 -4 60 -8 60 -5 0 -49 -42 -98 -92z"/>
<path d="M169900 115880 c0 -5 -13 -10 -29 -10 -25 0 -29 -4 -35 -37 -8 -53
-8 -173 2 -173 17 0 212 202 212 220 0 6 -30 10 -75 10 -43 0 -75 -4 -75 -10z"/>
<path d="M163093 115444 c-39 -41 -74 -83 -78 -93 -5 -16 1 -18 55 -20 36 -1
60 3 60 9 0 5 11 10 25 10 20 0 25 5 25 25 0 14 5 25 10 25 6 0 10 27 10 60 0
81 -15 78 -107 -16z"/>
<path d="M168240 115331 c0 -6 -11 -11 -25 -11 -20 0 -25 -5 -25 -25 0 -14 -4
-25 -10 -25 -6 0 -10 -33 -10 -80 0 -44 4 -80 8 -80 15 0 200 185 204 204 3
16 -6 19 -69 23 -49 3 -73 1 -73 -6z"/>
<path d="M161985 114886 c-47 -47 -85 -90 -85 -95 0 -7 24 -11 60 -11 33 0 60
4 60 10 0 6 11 10 25 10 20 0 25 5 25 25 0 14 5 25 10 25 6 0 10 27 10 60 0
34 -4 60 -10 60 -6 0 -49 -38 -95 -84z"/>
<path d="M166558 114773 c-23 -4 -28 -9 -28 -34 0 -16 -4 -29 -10 -29 -6 0
-10 -32 -10 -75 0 -45 4 -75 10 -75 18 0 191 168 213 206 7 12 -6 14 -70 13
-43 -1 -90 -4 -105 -6z"/>
<path d="M161435 114335 c-47 -47 -85 -90 -85 -95 0 -6 27 -10 60 -10 33 0 60
4 60 10 0 6 11 10 25 10 20 0 25 5 25 25 0 14 5 25 10 25 6 0 10 27 10 60 0
35 -4 60 -10 60 -6 0 -49 -38 -95 -85z"/>
<path d="M165480 114220 c0 -5 -13 -10 -29 -10 -25 0 -29 -4 -35 -37 -11 -69
-7 -163 7 -163 20 0 207 193 207 214 0 3 -34 6 -75 6 -43 0 -75 -4 -75 -10z"/>
<path d="M160891 113793 c-101 -101 -105 -113 -43 -113 26 0 64 3 85 6 33 6
37 10 37 35 0 16 5 29 10 29 6 0 10 27 10 60 0 36 -4 60 -11 60 -5 0 -45 -35
-88 -77z"/>
<path d="M164920 113670 c0 -5 -11 -10 -25 -10 -20 0 -25 -5 -25 -25 0 -14 -4
-25 -10 -25 -6 0 -10 -33 -10 -80 0 -55 4 -80 12 -80 15 0 218 204 218 219 0
7 -28 11 -80 11 -47 0 -80 -4 -80 -10z"/>
<path d="M160322 113226 c-45 -47 -82 -89 -82 -94 0 -5 27 -10 60 -11 34 -1
60 3 60 9 0 5 13 10 29 10 25 0 29 4 35 38 11 66 7 132 -7 132 -7 0 -50 -38
-95 -84z"/>
<path d="M163798 113113 c-22 -3 -28 -10 -28 -29 0 -13 -4 -24 -10 -24 -6 0
-10 -33 -10 -80 0 -44 4 -80 9 -80 13 0 211 197 211 210 0 10 -113 12 -172 3z"/>
<path d="M159775 112676 c-47 -46 -85 -89 -85 -95 0 -7 23 -11 60 -11 33 0 60
4 60 10 0 6 11 10 25 10 20 0 25 5 25 25 0 14 5 25 10 25 6 0 10 27 10 60 0
35 -4 60 -10 60 -6 0 -49 -38 -95 -84z"/>
<path d="M163270 112560 c0 -5 -13 -10 -29 -10 -25 0 -29 -4 -35 -37 -3 -21
-6 -66 -6 -101 0 -62 0 -63 23 -51 12 7 36 27 53 46 17 18 36 33 42 33 7 0 12
4 12 9 0 4 20 30 45 57 25 26 45 51 45 56 0 4 -34 8 -75 8 -43 0 -75 -4 -75
-10z"/>
<path d="M159223 112125 c-46 -47 -83 -89 -83 -95 0 -6 26 -10 60 -10 33 0 60
4 60 10 0 6 11 10 25 10 20 0 25 5 25 25 0 14 5 25 10 25 6 0 10 27 10 60 0
40 -4 60 -12 60 -6 0 -49 -38 -95 -85z"/>
<path d="M162710 112010 c0 -5 -11 -10 -25 -10 -20 0 -25 -5 -25 -25 0 -14 -4
-25 -10 -25 -6 0 -10 -33 -10 -80 0 -47 4 -80 10 -80 13 0 220 207 220 220 0
6 -32 10 -80 10 -47 0 -80 -4 -80 -10z"/>
<path d="M158675 111578 c-47 -45 -85 -88 -85 -95 0 -14 66 -18 133 -7 33 6
37 10 37 35 0 16 5 29 10 29 6 0 10 24 8 60 -1 33 -6 60 -10 60 -5 0 -46 -37
-93 -82z"/>
<path d="M162160 111460 c0 -5 -11 -10 -25 -10 -20 0 -25 -5 -25 -25 0 -14 -4
-25 -10 -25 -6 0 -10 -33 -10 -80 0 -44 4 -80 9 -80 13 0 206 192 214 213 6
15 -2 17 -73 17 -47 0 -80 -4 -80 -10z"/>
<path d="M161588 110903 c-22 -3 -28 -10 -28 -29 0 -13 -4 -24 -10 -24 -6 0
-10 -33 -10 -80 0 -44 4 -80 9 -80 14 0 211 196 211 209 0 11 -112 13 -172 4z"/>
<path d="M158190 110532 c-33 -22 -160 -153 -160 -164 0 -4 27 -8 60 -8 33 0
60 4 60 10 0 6 13 10 29 10 28 0 30 3 36 53 4 28 5 67 3 84 l-3 33 -25 -18z"/>
<path d="M157567 109913 c-48 -48 -87 -90 -87 -95 0 -4 27 -8 60 -8 33 0 60 4
60 10 0 6 11 10 25 10 20 0 25 5 25 25 0 14 5 25 10 25 6 0 10 27 10 60 0 33
-4 60 -8 60 -5 0 -47 -39 -95 -87z"/>
<path d="M161050 109800 c0 -5 -11 -10 -24 -10 -22 0 -25 -5 -31 -52 -4 -29
-5 -78 -3 -108 l3 -55 100 98 c54 53 103 97 107 97 12 0 10 10 -6 26 -17 16
-146 20 -146 4z"/>
<path d="M160500 109250 c0 -5 -11 -10 -25 -10 -20 0 -25 -5 -25 -25 0 -14 -4
-25 -10 -25 -6 0 -10 -33 -10 -80 0 -54 4 -80 12 -80 15 0 218 203 218 218 0
8 -25 12 -80 12 -47 0 -80 -4 -80 -10z"/>
<path d="M157013 108807 c-46 -46 -83 -89 -83 -95 0 -8 20 -12 60 -12 33 0 60
4 60 10 0 6 11 10 25 10 20 0 25 5 25 25 0 14 5 25 10 25 6 0 10 27 10 60 0
40 -4 60 -12 60 -6 0 -49 -37 -95 -83z"/>
<path d="M159950 108140 c0 -5 -11 -10 -25 -10 -20 0 -25 -5 -25 -25 0 -14 -4
-25 -10 -25 -6 0 -10 -32 -10 -75 0 -45 4 -75 10 -75 18 0 191 168 213 206 7
11 -6 14 -73 14 -47 0 -80 -4 -80 -10z"/>
<path d="M156465 107157 c-47 -46 -85 -89 -85 -95 0 -13 70 -16 133 -6 31 6
37 11 37 30 0 13 5 24 10 24 7 0 10 25 8 65 -1 36 -6 65 -10 65 -5 0 -47 -38
-93 -83z"/>
<path d="M159378 106483 c-23 -4 -28 -9 -28 -34 0 -16 -4 -29 -10 -29 -6 0
-10 -32 -10 -75 0 -41 4 -75 9 -75 5 0 29 20 54 45 26 25 51 45 57 45 5 0 10
5 10 10 0 6 20 31 45 57 25 25 45 49 45 54 0 9 -118 10 -172 2z"/>
<path d="M155910 103280 c-94 -94 -95 -94 -65 -98 16 -2 58 -1 92 3 l62 6 6
62 c4 34 5 76 3 92 -4 30 -4 29 -98 -65z"/>
<path d="M155810 102611 c0 -15 148 -164 180 -181 l23 -12 -5 91 c-3 51 -8 94
-11 97 -3 3 -46 8 -96 11 -68 4 -91 3 -91 -6z"/>
<path d="M159330 100550 c0 -40 4 -70 10 -70 6 0 10 -11 10 -25 0 -20 5 -25
25 -25 14 0 25 -4 25 -10 0 -6 29 -9 70 -8 39 1 70 6 70 11 0 11 -190 197
-201 197 -5 0 -9 -31 -9 -70z"/>
<path d="M159880 98895 c0 -37 4 -65 10 -65 6 0 10 -13 10 -29 0 -28 3 -30 53
-36 28 -4 72 -5 97 -3 l45 3 -96 98 c-52 53 -101 97 -107 97 -8 0 -12 -21 -12
-65z"/>
<path d="M156360 98748 c0 -14 182 -198 196 -198 5 0 10 32 12 70 2 43 -1 70
-8 70 -5 0 -10 11 -10 25 0 20 -5 25 -25 25 -14 0 -25 5 -25 10 0 6 -30 10
-70 10 -48 0 -70 -4 -70 -12z"/>
<path d="M160430 97790 c0 -40 4 -70 10 -70 6 0 10 -11 10 -25 0 -20 5 -25 25
-25 14 0 25 -4 25 -10 0 -6 30 -10 70 -10 44 0 70 4 70 11 0 14 -184 199 -199
199 -7 0 -11 -24 -11 -70z"/>
<path d="M156910 97090 c0 -13 185 -200 199 -200 7 0 11 26 11 70 0 40 -4 70
-10 70 -5 0 -10 11 -10 25 0 20 -5 25 -25 25 -14 0 -25 5 -25 10 0 6 -30 10
-70 10 -39 0 -70 -4 -70 -10z"/>
<path d="M160993 96659 c3 -50 8 -93 11 -96 3 -3 46 -8 96 -11 85 -4 90 -4 83
14 -9 24 -153 168 -177 177 -18 7 -19 3 -13 -84z"/>
<path d="M161540 96130 c0 -40 4 -70 10 -70 6 0 10 -11 10 -25 0 -20 5 -25 25
-25 14 0 25 -4 25 -10 0 -6 30 -10 70 -10 40 0 70 4 70 10 0 13 -188 200 -201
200 -5 0 -9 -31 -9 -70z"/>
<path d="M157469 95973 c5 -10 22 -30 39 -44 16 -15 36 -35 43 -45 21 -28 97
-94 109 -94 6 0 10 28 10 65 0 37 -4 65 -10 65 -5 0 -10 13 -10 29 0 25 -4 29
-37 35 -21 3 -64 6 -96 6 -52 0 -57 -2 -48 -17z"/>
<path d="M158020 95428 c0 -6 44 -54 98 -107 l97 -96 3 45 c2 25 1 69 -3 98
-6 49 -8 52 -36 52 -16 0 -29 5 -29 10 0 6 -28 10 -65 10 -42 0 -65 -4 -65
-12z"/>
<path d="M162090 95030 c0 -40 4 -70 10 -70 6 0 10 -11 10 -25 0 -20 5 -25 25
-25 14 0 25 -4 25 -10 0 -6 30 -10 71 -10 41 0 69 4 67 10 -5 15 -189 200
-199 200 -5 0 -9 -31 -9 -70z"/>
<path d="M162640 94470 c0 -40 4 -70 10 -70 6 0 10 -11 10 -24 0 -19 6 -24 38
-30 20 -3 63 -6 96 -6 l58 0 -15 23 c-27 41 -170 177 -187 177 -6 0 -10 -28
-10 -70z"/>
<path d="M158570 94327 c0 -6 57 -74 95 -112 31 -30 96 -85 103 -85 4 0 8 32
10 70 2 43 -1 70 -8 70 -5 0 -10 11 -10 25 0 20 -5 25 -25 25 -14 0 -25 5 -25
10 0 7 -27 10 -70 8 -38 -2 -70 -6 -70 -11z"/>
<path d="M163200 93933 c0 -32 3 -75 6 -95 6 -34 10 -38 35 -38 16 0 29 -4 29
-10 0 -6 29 -10 66 -10 59 0 65 2 59 19 -6 19 -150 167 -179 183 -14 8 -16 2
-16 -49z"/>
<path d="M159127 93766 c22 -38 175 -186 193 -186 6 0 10 28 10 65 0 37 -4 65
-10 65 -5 0 -10 13 -10 29 0 25 -4 29 -37 35 -21 3 -64 6 -96 6 -47 0 -56 -3
-50 -14z"/>
<path d="M163750 93371 c0 -41 4 -71 10 -71 6 0 10 -11 10 -25 0 -20 5 -25 25
-25 14 0 25 -4 25 -10 0 -6 30 -10 70 -10 39 0 70 4 70 9 0 9 -185 194 -200
199 -6 2 -10 -24 -10 -67z"/>
<path d="M164300 92820 c0 -40 4 -70 10 -70 6 0 10 -11 10 -25 0 -20 5 -25 25
-25 14 0 25 -4 25 -10 0 -6 30 -10 71 -10 41 0 69 4 67 10 -5 15 -189 200
-199 200 -5 0 -9 -31 -9 -70z"/>
<path d="M159670 92671 c0 -11 191 -201 202 -201 4 0 8 32 8 70 0 40 -4 70
-10 70 -5 0 -10 11 -10 25 0 20 -5 25 -25 25 -14 0 -25 5 -25 10 0 6 -30 10
-70 10 -38 0 -70 -4 -70 -9z"/>
<path d="M164850 92260 c0 -40 4 -70 10 -70 6 0 10 -11 10 -24 0 -19 6 -24 38
-30 20 -3 63 -6 95 -6 70 0 70 3 -32 107 -64 65 -99 93 -115 93 -3 0 -6 -31
-6 -70z"/>
<path d="M160236 92107 c6 -20 135 -151 171 -174 23 -15 23 -15 23 43 0 33 -3
76 -6 97 -6 33 -10 37 -35 37 -16 0 -29 5 -29 10 0 6 -26 9 -65 8 -57 -3 -64
-5 -59 -21z"/>
<path d="M165410 91723 c0 -32 3 -75 6 -95 6 -34 10 -38 35 -38 16 0 29 -4 29
-10 0 -6 29 -10 66 -10 60 0 65 2 59 19 -6 21 -149 167 -177 182 -16 9 -18 4
-18 -48z"/>
<path d="M160794 91546 c27 -42 165 -176 181 -176 12 0 15 14 15 65 0 37 -4
65 -10 65 -5 0 -10 13 -10 29 0 25 -4 29 -37 35 -21 3 -64 6 -97 6 l-58 0 16
-24z"/>
<path d="M165960 91160 c0 -40 4 -70 10 -70 6 0 10 -11 10 -25 0 -20 5 -25 25
-25 14 0 25 -4 25 -10 0 -6 30 -10 70 -10 39 0 70 3 70 8 0 9 -193 202 -203
202 -4 0 -7 -31 -7 -70z"/>
<path d="M161330 91012 c0 -12 189 -202 201 -202 5 0 9 32 9 70 0 40 -4 70
-10 70 -5 0 -10 11 -10 25 0 20 -5 25 -25 25 -14 0 -25 5 -25 10 0 6 -30 10
-70 10 -38 0 -70 -4 -70 -8z"/>
<path d="M166510 90605 c0 -37 4 -65 10 -65 6 0 10 -13 10 -29 0 -25 4 -29 38
-35 20 -3 63 -6 95 -6 48 0 57 2 50 15 -17 30 -175 185 -189 185 -11 0 -14
-16 -14 -65z"/>
<path d="M161880 90461 c0 -11 191 -201 202 -201 4 0 8 32 8 70 0 40 -4 70
-10 70 -5 0 -10 11 -10 25 0 20 -5 25 -25 25 -14 0 -25 5 -25 10 0 6 -30 10
-70 10 -38 0 -70 -4 -70 -9z"/>
<path d="M167062 90050 c-2 -43 1 -70 8 -70 5 0 10 -11 10 -25 0 -20 5 -25 25
-25 14 0 25 -5 25 -10 0 -7 27 -10 70 -8 38 2 70 6 70 11 0 8 -64 80 -124 140
-34 33 -67 57 -78 57 -2 0 -4 -32 -6 -70z"/>
<path d="M162446 89896 c8 -22 147 -161 175 -177 22 -11 22 -11 17 80 -3 51
-8 94 -11 97 -3 3 -46 8 -96 11 -84 5 -91 5 -85 -11z"/>
<path d="M167620 89513 c0 -32 3 -75 6 -95 6 -34 10 -38 35 -38 16 0 29 -4 29
-10 0 -6 28 -10 65 -10 49 0 65 3 65 14 0 14 -155 172 -185 189 -13 7 -15 -1
-15 -50z"/>
<path d="M162990 89352 c0 -12 189 -202 200 -202 6 0 10 32 10 70 0 40 -4 70
-10 70 -5 0 -10 11 -10 25 0 20 -5 25 -25 25 -14 0 -25 5 -25 10 0 6 -30 10
-70 10 -38 0 -70 -4 -70 -8z"/>
<path d="M168170 88951 c0 -41 4 -71 10 -71 6 0 10 -11 10 -25 0 -20 5 -25 25
-25 14 0 25 -4 25 -10 0 -6 30 -10 70 -10 39 0 70 4 70 8 0 10 -185 195 -200
200 -6 2 -10 -23 -10 -67z"/>
<path d="M163540 88801 c0 -12 189 -201 201 -201 5 0 9 32 9 70 0 40 -4 70
-10 70 -5 0 -10 11 -10 25 0 20 -5 25 -25 25 -14 0 -25 5 -25 10 0 6 -30 10
-70 10 -38 0 -70 -4 -70 -9z"/>
<path d="M168720 88395 c0 -37 4 -65 10 -65 6 0 10 -13 10 -29 0 -28 3 -30 53
-36 28 -4 72 -5 97 -3 l45 3 -96 98 c-52 53 -101 97 -107 97 -8 0 -12 -21 -12
-65z"/>
<path d="M164090 88250 c0 -12 190 -200 202 -200 4 0 8 32 8 70 0 40 -4 70
-10 70 -5 0 -10 11 -10 25 0 20 -5 25 -25 25 -14 0 -25 5 -25 10 0 6 -30 10
-70 10 -40 0 -70 -4 -70 -10z"/>
<path d="M169280 87853 c0 -32 3 -75 6 -95 6 -32 11 -38 30 -38 13 0 24 -5 24
-10 0 -7 27 -10 70 -8 38 2 70 4 70 6 0 14 -32 52 -96 114 -104 101 -104 101
-104 31z"/>
<path d="M164658 87683 c14 -26 149 -161 175 -174 19 -11 20 -9 15 80 -3 51
-8 94 -11 98 -4 3 -47 8 -98 11 -88 5 -91 4 -81 -15z"/>
<path d="M169830 87303 c0 -32 3 -75 6 -95 6 -34 10 -38 35 -38 16 0 29 -4 29
-10 0 -6 28 -10 65 -10 48 0 65 3 65 14 0 13 -171 187 -191 194 -5 2 -9 -22
-9 -55z"/>
<path d="M165200 87142 c0 -12 187 -202 199 -202 7 0 11 27 11 70 0 40 -4 70
-10 70 -5 0 -10 11 -10 25 0 20 -5 25 -25 25 -14 0 -25 5 -25 10 0 6 -30 10
-70 10 -38 0 -70 -4 -70 -8z"/>
<path d="M170380 86740 c0 -40 4 -70 10 -70 6 0 10 -11 10 -25 0 -20 5 -25 25
-25 14 0 25 -4 25 -10 0 -6 30 -10 71 -10 43 0 69 4 67 10 -4 14 -190 200
-200 200 -4 0 -8 -31 -8 -70z"/>
<path d="M165750 86591 c0 -11 190 -201 201 -201 5 0 9 32 9 70 0 40 -4 70
-10 70 -5 0 -10 11 -10 25 0 20 -5 25 -25 25 -14 0 -25 5 -25 10 0 6 -30 10
-70 10 -38 0 -70 -4 -70 -9z"/>
<path d="M166300 86040 c0 -12 189 -200 201 -200 5 0 9 32 9 70 0 40 -4 70
-10 70 -5 0 -10 11 -10 25 0 20 -5 25 -25 25 -14 0 -25 5 -25 10 0 6 -30 10
-70 10 -38 0 -70 -4 -70 -10z"/>
<path d="M166869 85471 c16 -29 153 -166 176 -175 17 -6 18 0 12 85 -3 50 -8
93 -11 96 -3 3 -46 8 -97 11 l-91 5 11 -22z"/>
<path d="M167962 84930 c4 -14 190 -200 200 -200 4 0 8 32 8 70 0 40 -4 70
-10 70 -5 0 -10 11 -10 25 0 20 -5 25 -25 25 -14 0 -25 5 -25 10 0 6 -30 10
-71 10 -43 0 -69 -4 -67 -10z"/>
<path d="M168521 84373 c1 -10 45 -58 98 -108 l96 -90 3 45 c2 25 1 69 -3 98
-6 49 -8 52 -36 52 -16 0 -29 5 -29 10 0 6 -28 10 -65 10 -56 0 -65 -3 -64
-17z"/>
<path d="M169070 83828 c0 -14 182 -198 196 -198 5 0 10 32 12 70 2 43 -1 70
-8 70 -5 0 -10 11 -10 25 0 20 -5 25 -25 25 -14 0 -25 5 -25 10 0 6 -30 10
-70 10 -48 0 -70 -4 -70 -12z"/>
<path d="M171000 83830 c0 -5 -11 -10 -25 -10 -20 0 -25 -5 -25 -25 0 -14 -4
-25 -10 -25 -6 0 -10 -33 -10 -80 0 -53 4 -80 11 -80 16 0 219 203 219 218 0
8 -24 12 -80 12 -47 0 -80 -4 -80 -10z"/>
<path d="M169629 83263 c14 -27 177 -183 190 -183 7 0 11 24 11 65 0 37 -4 65
-10 65 -5 0 -10 13 -10 29 0 25 -4 29 -37 35 -21 3 -64 6 -96 6 -52 0 -57 -2
-48 -17z"/>
<path d="M170172 82720 c4 -14 190 -200 200 -200 4 0 8 32 8 70 0 40 -4 70
-10 70 -5 0 -10 11 -10 25 0 20 -5 25 -25 25 -14 0 -25 5 -25 10 0 6 -30 10
-71 10 -43 0 -69 -4 -67 -10z"/>
<path d="M154352 51920 c-2 -43 1 -70 8 -70 5 0 10 -11 10 -25 0 -20 5 -25 25
-25 14 0 25 -5 25 -10 0 -7 27 -10 70 -8 38 2 70 6 70 11 0 8 -64 80 -124 140
-34 33 -67 57 -78 57 -2 0 -4 -32 -6 -70z"/>
<path d="M155460 51370 c0 -40 4 -70 10 -70 6 0 10 -11 10 -25 0 -20 5 -25 25
-25 14 0 25 -4 25 -10 0 -6 30 -10 70 -10 39 0 70 4 70 9 0 12 -190 201 -202
201 -4 0 -8 -31 -8 -70z"/>
<path d="M153590 51222 c0 -9 193 -202 203 -202 4 0 7 32 7 70 0 40 -4 70 -10
70 -5 0 -10 11 -10 25 0 20 -5 25 -25 25 -14 0 -25 5 -25 10 0 6 -30 10 -70
10 -38 0 -70 -3 -70 -8z"/>
<path d="M156080 50670 c0 -5 -11 -10 -25 -10 -20 0 -25 -5 -25 -25 0 -14 -4
-25 -10 -25 -6 0 -10 -33 -10 -80 0 -44 4 -80 9 -80 12 0 221 210 221 221 0 5
-36 9 -80 9 -47 0 -80 -4 -80 -10z"/>
<path d="M155530 50120 c0 -5 -11 -10 -25 -10 -20 0 -25 -5 -25 -25 0 -14 -4
-25 -10 -25 -6 0 -10 -33 -10 -80 0 -44 4 -80 8 -80 14 0 200 188 207 209 6
20 3 21 -69 21 -44 0 -76 -4 -76 -10z"/>
<path d="M154420 48460 c0 -5 -11 -10 -25 -10 -20 0 -25 -5 -25 -25 0 -14 -5
-25 -10 -25 -7 0 -9 -30 -8 -80 2 -44 7 -80 11 -80 12 0 217 208 217 220 0 6
-34 10 -80 10 -47 0 -80 -4 -80 -10z"/>
<path d="M44575 167743 c-44 -31 -129 -90 -190 -131 -119 -82 -214 -147 -285
-197 -25 -17 -76 -53 -115 -80 -38 -27 -200 -141 -360 -254 -159 -112 -304
-214 -320 -225 -17 -12 -46 -33 -65 -47 -19 -14 -196 -142 -393 -283 -197
-142 -432 -313 -522 -380 -90 -66 -227 -168 -306 -226 -145 -107 -262 -194
-560 -420 -91 -69 -219 -165 -285 -215 -476 -360 -1441 -1119 -1994 -1570
-107 -87 -231 -188 -275 -224 -183 -149 -256 -209 -575 -475 -426 -356 -1085
-918 -1395 -1191 -132 -116 -312 -274 -400 -352 -166 -145 -231 -204 -626
-558 -428 -384 -1269 -1165 -1634 -1516 -66 -63 -248 -238 -405 -389 -502
-482 -1550 -1530 -2051 -2050 -551 -574 -1127 -1188 -1659 -1770 -340 -373
-1092 -1222 -1404 -1585 -971 -1131 -1896 -2256 -2596 -3160 -68 -88 -201
-259 -295 -380 -154 -198 -339 -442 -699 -920 -114 -151 -193 -258 -401 -540
-49 -66 -125 -169 -170 -230 -45 -60 -198 -272 -340 -470 -142 -198 -270 -376
-285 -395 -14 -19 -67 -93 -116 -163 -49 -71 -114 -164 -144 -207 -30 -43 -79
-113 -109 -156 -30 -44 -112 -160 -181 -259 -70 -99 -190 -272 -267 -385 -77
-113 -174 -254 -215 -315 -96 -140 -673 -1006 -763 -1145 -38 -58 -93 -143
-123 -190 -30 -47 -83 -128 -117 -180 -156 -239 -210 -323 -480 -750 -159
-250 -313 -495 -342 -545 -30 -49 -73 -119 -95 -155 -22 -36 -64 -103 -93
-150 -29 -47 -83 -134 -120 -195 -75 -122 -563 -934 -669 -1115 -68 -115 -93
-157 -201 -345 -32 -55 -70 -120 -85 -145 -27 -45 -109 -187 -181 -312 -22
-38 -56 -98 -78 -135 -178 -311 -390 -689 -626 -1118 -106 -192 -213 -386
-237 -430 -25 -44 -69 -125 -98 -180 -100 -190 -143 -271 -240 -450 -99 -184
-164 -306 -287 -545 -101 -194 -198 -380 -258 -495 -76 -144 -643 -1278 -775
-1550 -175 -358 -360 -745 -360 -751 0 -2 -21 -45 -46 -96 -49 -101 -370 -790
-506 -1088 -86 -187 -145 -320 -258 -575 -34 -77 -81 -183 -105 -235 -24 -52
-53 -117 -65 -145 -12 -27 -35 -79 -50 -115 -72 -166 -113 -259 -135 -310 -13
-30 -40 -92 -59 -136 -20 -45 -36 -84 -36 -87 0 -3 -13 -34 -29 -69 -49 -106
-171 -393 -267 -628 -19 -47 -46 -109 -59 -138 -14 -29 -25 -57 -25 -62 0 -5
-11 -33 -24 -62 -14 -29 -37 -82 -51 -118 -15 -36 -37 -90 -50 -120 -77 -187
-180 -441 -192 -475 -8 -22 -25 -65 -38 -95 -38 -91 -83 -202 -103 -255 -11
-27 -39 -97 -62 -155 -23 -58 -58 -145 -77 -195 -19 -49 -50 -128 -68 -175
-19 -47 -50 -128 -70 -180 -38 -99 -59 -154 -118 -305 -19 -49 -49 -128 -67
-175 -18 -47 -45 -119 -60 -160 -29 -75 -89 -235 -136 -365 -15 -38 -37 -97
-50 -130 -13 -33 -32 -85 -43 -115 -10 -30 -40 -111 -66 -180 -25 -69 -55
-150 -65 -180 -10 -30 -35 -100 -55 -155 -64 -177 -172 -477 -185 -515 -5 -14
-32 -90 -60 -170 -28 -80 -73 -210 -100 -290 -27 -80 -70 -203 -95 -275 -50
-141 -412 -1228 -471 -1415 -49 -156 -90 -286 -129 -405 -17 -55 -47 -147 -65
-205 -18 -58 -45 -143 -61 -190 -15 -47 -44 -141 -64 -210 -21 -69 -50 -165
-65 -215 -15 -49 -44 -146 -65 -215 -21 -69 -50 -165 -66 -215 -15 -49 -42
-139 -60 -200 -17 -60 -44 -153 -59 -205 -16 -52 -44 -151 -64 -220 -20 -69
-50 -171 -66 -227 -17 -57 -43 -149 -60 -205 -16 -57 -46 -161 -65 -233 -20
-71 -49 -177 -65 -235 -16 -58 -44 -157 -61 -220 -17 -63 -46 -169 -64 -235
-43 -154 -84 -308 -125 -465 -36 -138 -85 -324 -124 -470 -31 -116 -271 -1077
-321 -1285 -20 -82 -49 -204 -65 -270 -51 -211 -142 -601 -190 -815 -17 -80
-45 -201 -60 -270 -66 -292 -127 -572 -189 -865 -16 -77 -43 -205 -60 -285
-17 -80 -40 -188 -50 -240 -11 -52 -27 -129 -35 -170 -8 -41 -29 -147 -47
-235 -17 -88 -44 -223 -59 -300 -86 -424 -241 -1266 -320 -1730 -17 -99 -44
-254 -60 -345 -29 -160 -68 -399 -131 -800 -17 -107 -44 -274 -60 -370 -15
-96 -31 -197 -34 -225 -4 -27 -19 -135 -35 -240 -85 -569 -90 -605 -189 -1345
-44 -321 -136 -1070 -166 -1335 -97 -871 -163 -1510 -185 -1785 -6 -74 -17
-191 -25 -260 -7 -69 -18 -190 -25 -270 -6 -80 -24 -307 -40 -505 -34 -409
-85 -1112 -100 -1380 -6 -99 -19 -317 -30 -485 -11 -168 -24 -417 -30 -555 -6
-137 -20 -428 -31 -645 -10 -217 -24 -564 -29 -770 -5 -206 -15 -523 -22 -705
-18 -463 -18 -3827 0 -4290 7 -181 17 -499 22 -705 5 -206 19 -553 29 -770 11
-217 25 -507 31 -645 6 -137 19 -387 30 -555 11 -168 24 -386 30 -485 15 -268
66 -971 100 -1380 16 -198 34 -425 40 -505 7 -80 18 -201 25 -270 8 -69 19
-186 25 -260 22 -275 88 -914 185 -1785 30 -265 122 -1014 166 -1335 99 -740
104 -776 189 -1345 16 -104 31 -212 35 -240 3 -27 19 -129 34 -225 16 -96 43
-263 60 -370 63 -401 102 -640 131 -800 16 -91 43 -246 60 -345 79 -464 234
-1306 320 -1730 15 -77 42 -212 59 -300 18 -88 39 -194 47 -235 8 -41 24 -118
35 -170 10 -52 33 -160 50 -240 17 -80 44 -208 60 -285 62 -293 123 -573 189
-865 15 -69 43 -190 60 -270 48 -214 139 -604 190 -815 16 -66 45 -187 65
-270 50 -208 290 -1169 321 -1285 39 -146 88 -332 124 -470 41 -157 82 -311
125 -465 18 -66 47 -172 64 -235 17 -63 45 -162 61 -220 16 -58 45 -163 65
-235 38 -140 78 -281 125 -440 17 -55 46 -156 66 -225 20 -69 48 -168 64 -220
15 -52 42 -144 59 -205 18 -60 45 -150 60 -200 16 -49 45 -146 66 -215 21 -69
50 -165 65 -215 15 -49 44 -146 65 -215 20 -69 49 -163 64 -210 16 -47 43
-132 61 -190 18 -58 48 -150 65 -205 18 -55 46 -143 62 -195 77 -241 106 -332
293 -895 109 -330 219 -658 245 -730 25 -71 68 -195 95 -275 62 -184 108 -314
160 -460 23 -63 50 -140 60 -170 10 -30 39 -111 65 -180 26 -69 55 -150 65
-180 11 -30 35 -100 55 -155 20 -55 47 -129 60 -165 12 -36 35 -96 49 -135 32
-81 73 -191 109 -290 62 -166 110 -295 137 -365 15 -41 42 -113 60 -160 18
-47 47 -123 66 -170 18 -47 49 -128 69 -180 40 -104 64 -167 118 -305 19 -49
51 -130 70 -180 19 -49 54 -137 77 -195 23 -58 51 -127 62 -155 20 -53 65
-164 103 -255 13 -30 30 -73 38 -95 12 -34 115 -288 192 -475 13 -30 35 -84
50 -120 14 -36 37 -89 51 -118 13 -29 24 -57 24 -62 0 -5 11 -33 25 -62 13
-29 40 -91 59 -138 96 -235 218 -522 267 -628 16 -35 29 -66 29 -69 0 -3 16
-42 36 -87 19 -44 46 -106 59 -136 22 -51 63 -144 135 -310 15 -36 38 -87 50
-115 12 -27 41 -93 65 -145 24 -52 71 -158 105 -235 113 -255 172 -388 258
-575 136 -298 457 -987 506 -1088 25 -51 46 -94 46 -96 0 -6 185 -393 360
-751 132 -272 699 -1406 775 -1550 60 -115 157 -301 258 -495 123 -239 188
-361 287 -545 97 -179 140 -260 240 -450 29 -55 73 -136 98 -180 24 -44 131
-237 237 -430 238 -432 458 -825 628 -1120 22 -38 57 -99 77 -135 65 -114 152
-264 180 -310 15 -25 53 -90 85 -145 108 -187 133 -230 201 -345 98 -166 491
-824 534 -895 20 -33 62 -100 92 -150 137 -224 245 -399 293 -475 13 -19 43
-69 67 -110 25 -41 175 -280 333 -530 270 -427 323 -510 480 -750 34 -52 87
-133 117 -180 30 -47 86 -132 123 -190 100 -153 685 -1031 801 -1200 143 -211
410 -597 477 -693 32 -45 89 -127 127 -182 39 -55 96 -137 127 -182 32 -44 94
-132 137 -194 82 -119 730 -1018 776 -1079 15 -19 65 -87 112 -150 180 -245
268 -363 437 -590 97 -129 178 -237 181 -240 3 -3 88 -115 189 -249 174 -231
224 -297 411 -536 43 -55 145 -185 226 -290 601 -774 1537 -1921 2229 -2730
160 -187 320 -374 355 -416 218 -255 872 -994 1314 -1484 412 -457 1186 -1283
1755 -1875 699 -726 2056 -2070 2642 -2616 53 -49 204 -190 335 -314 546 -513
1122 -1037 1686 -1535 543 -479 716 -629 1128 -981 501 -427 964 -813 1430
-1194 270 -220 285 -232 883 -710 261 -208 951 -745 1182 -920 84 -63 233
-176 331 -250 305 -231 425 -321 573 -430 79 -58 216 -160 306 -226 90 -67
325 -238 522 -380 197 -141 374 -269 393 -283 19 -14 48 -35 65 -47 16 -11
176 -124 355 -250 179 -126 345 -242 368 -259 122 -85 228 -159 332 -230 63
-43 157 -107 207 -142 51 -35 95 -63 98 -63 3 0 5 30510 5 67800 0 37290 -3
67800 -7 67799 -5 0 -44 -25 -88 -56z"/>
</g>
</svg>
